<svg width="278" height="83" viewBox="0 0 278 83" fill="none" xmlns="http://www.w3.org/2000/svg">
<path d="M50.6172 21.52C54.9612 21.52 56.8332 19.816 56.8332 17.512C56.8332 15.232 55.1772 14.392 52.8252 14.392H49.4172C48.6492 14.392 48.3132 14.176 48.3132 13.576C48.3132 13.264 48.4812 13.192 48.7692 12.952C49.3452 13.144 50.0172 13.192 50.7132 13.192C53.4972 13.192 55.5612 12.04 55.5612 9.4V9.232C55.5612 8.464 55.3452 7.936 54.9372 7.48H56.8332V5.656H52.6572C52.0572 5.536 51.4092 5.464 50.7372 5.464C47.8092 5.464 45.7932 6.76 45.7932 9.304V9.52C45.7932 10.912 46.4172 11.824 47.3532 12.424C46.4652 13 45.9132 13.504 45.9132 14.344C45.9132 15.208 46.4652 15.88 47.2092 16.144V16.24C45.9132 16.624 44.9052 17.392 44.9052 18.664C44.9052 20.416 46.7532 21.52 50.6172 21.52ZM50.5692 19.648C48.4332 19.648 47.6412 19.168 47.6412 18.256C47.6412 17.416 48.1692 16.96 48.9132 16.72H52.0812C53.5692 16.72 54.0012 17.008 54.0012 17.968C54.0012 19 53.1372 19.648 50.5692 19.648ZM50.7132 11.416C49.3452 11.416 48.5052 10.888 48.5052 9.448V9.16C48.5052 7.864 49.2972 7.216 50.7132 7.216C52.0572 7.216 52.8972 7.744 52.8972 9.208V9.52C52.8972 10.888 52.1292 11.416 50.7132 11.416ZM59.0198 18.016H61.8038V0.472H59.0198V18.016ZM68.2319 18.232C69.8399 18.232 70.8239 17.704 71.4239 17.008H71.5679L71.7839 18.016H74.0639V9.136C74.0639 6.568 72.4079 5.464 69.5519 5.464C67.9439 5.464 66.6239 5.68 65.4719 6.136V8.032C66.2159 7.864 67.2719 7.696 68.4719 7.696C70.5599 7.696 71.3039 8.08 71.3039 9.76V10.696L68.3999 11.032C65.9519 11.392 64.4399 12.448 64.4399 14.728C64.4399 17.104 65.9999 18.232 68.2319 18.232ZM69.0719 16.288C67.9439 16.288 67.1519 15.76 67.1519 14.584C67.1519 13.336 67.7999 12.832 69.0239 12.736L71.3039 12.496V15.544C70.8479 15.976 69.9599 16.288 69.0719 16.288ZM81.6685 18.232C83.2525 18.232 84.4045 17.752 85.1725 17.032H85.2685L85.5085 18.016H87.8605V0.472H85.1245V6.136C84.5485 5.824 83.6125 5.44 82.1725 5.44C78.9565 5.44 76.6525 7.36 76.6525 11.896V12.208C76.6525 16.672 79.2205 18.232 81.6685 18.232ZM82.6285 16.096C80.7565 16.096 79.4845 15.16 79.4845 12.088V11.632C79.4845 8.584 80.6845 7.576 82.6045 7.576C83.7085 7.576 84.6685 7.864 85.1245 8.224V15.256C84.6445 15.616 83.7805 16.096 82.6285 16.096ZM101.657 18.16C102.809 18.16 103.481 17.896 103.961 17.656V15.808C103.529 15.928 103.025 16 102.545 16C101.249 16 100.865 15.616 100.865 14.584V7.816H103.817V5.656H100.865V2.752H98.1528V5.656H96.4248V7.816H98.1528V14.968C98.1528 17.296 99.5208 18.16 101.657 18.16ZM111.64 18.232C115.096 18.232 117.496 15.952 117.496 11.968V11.632C117.496 7.696 115.36 5.44 111.664 5.44C108.184 5.44 105.784 7.744 105.784 11.704V12.088C105.784 15.952 107.872 18.232 111.64 18.232ZM111.688 16.144C109.96 16.144 108.616 15.28 108.616 12.088V11.512C108.616 8.848 109.72 7.528 111.616 7.528C113.296 7.528 114.616 8.392 114.616 11.608V12.208C114.616 14.872 113.536 16.144 111.688 16.144ZM126.355 18.016H129.115V8.416C129.859 8.032 130.771 7.744 131.659 7.744C133.051 7.744 133.555 8.248 133.555 9.472V18.016H136.267V8.992C136.267 8.752 136.243 8.632 136.219 8.44C137.155 7.984 137.971 7.744 138.787 7.744C140.203 7.744 140.683 8.248 140.683 9.472V18.016H143.419V8.824C143.419 6.376 142.195 5.44 140.011 5.44C138.619 5.44 137.227 5.968 135.955 6.832H135.811C135.259 5.872 134.299 5.44 132.883 5.44C131.443 5.44 130.171 6.016 129.115 6.76H129.019V5.656H126.355V18.016ZM152.029 18.232C154.117 18.232 155.557 17.632 156.397 17.08V15.16C155.317 15.712 154.165 16.072 152.581 16.072C150.229 16.072 148.909 15.16 148.741 12.592H156.805V11.44C156.805 7.504 155.221 5.464 151.573 5.464C148.429 5.464 145.909 7.504 145.909 11.656V11.992C145.909 15.904 147.925 18.232 152.029 18.232ZM151.525 7.504C153.133 7.504 153.997 8.368 153.997 10.696H148.741C148.933 8.176 150.253 7.504 151.525 7.504ZM164.779 18.232C166.867 18.232 168.307 17.632 169.147 17.08V15.16C168.067 15.712 166.915 16.072 165.331 16.072C162.979 16.072 161.659 15.16 161.491 12.592H169.555V11.44C169.555 7.504 167.971 5.464 164.323 5.464C161.179 5.464 158.659 7.504 158.659 11.656V11.992C158.659 15.904 160.675 18.232 164.779 18.232ZM164.275 7.504C165.883 7.504 166.747 8.368 166.747 10.696H161.491C161.683 8.176 163.003 7.504 164.275 7.504ZM176.446 18.16C177.598 18.16 178.27 17.896 178.75 17.656V15.808C178.318 15.928 177.814 16 177.334 16C176.038 16 175.654 15.616 175.654 14.584V7.816H178.606V5.656H175.654V2.752H172.942V5.656H171.214V7.816H172.942V14.968C172.942 17.296 174.31 18.16 176.446 18.16ZM188.989 21.568C191.269 21.568 192.469 20.704 193.285 18.352L198.061 5.656H195.397L192.517 13.672H192.421L189.301 5.656H186.373L191.029 17.104L190.693 17.968C190.261 19.144 189.517 19.432 188.389 19.432C187.957 19.432 187.501 19.384 187.189 19.312V21.16C187.549 21.4 188.365 21.568 188.989 21.568ZM205.319 18.232C208.775 18.232 211.175 15.952 211.175 11.968V11.632C211.175 7.696 209.039 5.44 205.343 5.44C201.863 5.44 199.463 7.744 199.463 11.704V12.088C199.463 15.952 201.551 18.232 205.319 18.232ZM205.367 16.144C203.639 16.144 202.295 15.28 202.295 12.088V11.512C202.295 8.848 203.399 7.528 205.295 7.528C206.975 7.528 208.295 8.392 208.295 11.608V12.208C208.295 14.872 207.215 16.144 205.367 16.144ZM217.402 18.232C218.962 18.232 220.162 17.68 221.194 16.936H221.314L221.554 18.016H223.954V5.656H221.194V15.256C220.402 15.616 219.514 16 218.434 16C216.898 16 216.418 15.448 216.418 14.104V5.656H213.658V14.632C213.658 17.056 215.002 18.232 217.402 18.232ZM0.375375 50.016H3.35138V33.552H0.375375V50.016ZM6.49519 35.16H7.95919C7.93519 36.072 7.28719 36.984 6.49519 37.176V38.688C8.46319 38.328 9.66319 36.648 9.66319 34.464V32.112H6.49519V35.16ZM12.8117 50.016H15.5717V40.416C16.3157 40.032 17.2277 39.744 18.1157 39.744C19.5077 39.744 20.0117 40.248 20.0117 41.472V50.016H22.7237V40.992C22.7237 40.752 22.6997 40.632 22.6757 40.44C23.6117 39.984 24.4277 39.744 25.2437 39.744C26.6597 39.744 27.1397 40.248 27.1397 41.472V50.016H29.8757V40.824C29.8757 38.376 28.6517 37.44 26.4677 37.44C25.0757 37.44 23.6837 37.968 22.4117 38.832H22.2677C21.7157 37.872 20.7557 37.44 19.3397 37.44C17.8997 37.44 16.6277 38.016 15.5717 38.76H15.4757V37.656H12.8117V50.016ZM42.4624 50.232C44.0704 50.232 45.0544 49.704 45.6544 49.008H45.7984L46.0144 50.016H48.2944V41.136C48.2944 38.568 46.6384 37.464 43.7824 37.464C42.1744 37.464 40.8544 37.68 39.7024 38.136V40.032C40.4464 39.864 41.5024 39.696 42.7024 39.696C44.7904 39.696 45.5344 40.08 45.5344 41.76V42.696L42.6304 43.032C40.1824 43.392 38.6704 44.448 38.6704 46.728C38.6704 49.104 40.2304 50.232 42.4624 50.232ZM43.3024 48.288C42.1744 48.288 41.3824 47.76 41.3824 46.584C41.3824 45.336 42.0304 44.832 43.2544 44.736L45.5344 44.496V47.544C45.0784 47.976 44.1904 48.288 43.3024 48.288ZM57.8117 53.592H60.5717V49.536C61.1717 49.872 62.0837 50.232 63.4517 50.232C66.8117 50.232 69.0437 48.408 69.0437 43.776V43.464C69.0437 38.928 66.7157 37.44 64.1477 37.44C62.5877 37.44 61.3157 37.968 60.5717 38.712H60.4757V37.656H57.8117V53.592ZM63.0677 48.144C61.9877 48.144 61.0517 47.808 60.5717 47.424V40.416C61.0517 40.08 61.9877 39.696 63.1637 39.696C65.1077 39.696 66.1637 40.584 66.1637 43.632V44.136C66.1637 47.136 65.0357 48.144 63.0677 48.144ZM76.8233 50.232C80.2793 50.232 82.6793 47.952 82.6793 43.968V43.632C82.6793 39.696 80.5433 37.44 76.8473 37.44C73.3673 37.44 70.9673 39.744 70.9673 43.704V44.088C70.9673 47.952 73.0553 50.232 76.8233 50.232ZM76.8713 48.144C75.1433 48.144 73.7993 47.28 73.7993 44.088V43.512C73.7993 40.848 74.9033 39.528 76.7993 39.528C78.4793 39.528 79.7993 40.392 79.7993 43.608V44.208C79.7993 46.872 78.7193 48.144 76.8713 48.144ZM90.3936 50.232C93.8496 50.232 96.2496 47.952 96.2496 43.968V43.632C96.2496 39.696 94.1136 37.44 90.4176 37.44C86.9376 37.44 84.5376 39.744 84.5376 43.704V44.088C84.5376 47.952 86.6256 50.232 90.3936 50.232ZM90.4416 48.144C88.7136 48.144 87.3696 47.28 87.3696 44.088V43.512C87.3696 40.848 88.4736 39.528 90.3696 39.528C92.0496 39.528 93.3696 40.392 93.3696 43.608V44.208C93.3696 46.872 92.2896 48.144 90.4416 48.144ZM98.8039 50.016H101.564V40.824C102.356 40.32 103.46 40.008 104.564 40.008C104.852 40.008 105.26 40.032 105.572 40.08V37.632C105.452 37.584 105.14 37.56 104.804 37.56C103.508 37.56 102.236 38.208 101.564 39.096H101.468V37.656H98.8039V50.016ZM111.235 50.208C114.259 50.208 115.963 48.936 115.963 46.368C115.963 44.232 115.027 43.272 112.603 42.72L111.427 42.456C110.251 42.168 109.771 41.856 109.771 40.992C109.771 40.032 110.539 39.552 111.979 39.552C113.371 39.552 114.571 39.912 115.291 40.224V38.136C114.475 37.776 113.419 37.464 111.739 37.464C108.619 37.464 107.155 38.928 107.155 41.208C107.155 43.416 108.403 44.376 110.299 44.76L111.451 45.024C112.795 45.312 113.275 45.744 113.275 46.632C113.275 47.544 112.555 48.12 110.827 48.12C109.099 48.12 108.187 47.76 107.155 47.352V49.368C108.187 49.92 109.627 50.208 111.235 50.208ZM122.762 50.16C123.914 50.16 124.586 49.896 125.066 49.656V47.808C124.634 47.928 124.13 48 123.65 48C122.354 48 121.97 47.616 121.97 46.584V39.816H124.922V37.656H121.97V34.752H119.258V37.656H117.53V39.816H119.258V46.968C119.258 49.296 120.626 50.16 122.762 50.16ZM130.681 50.232C132.289 50.232 133.273 49.704 133.873 49.008H134.017L134.233 50.016H136.513V41.136C136.513 38.568 134.857 37.464 132.001 37.464C130.393 37.464 129.073 37.68 127.921 38.136V40.032C128.665 39.864 129.721 39.696 130.921 39.696C133.009 39.696 133.753 40.08 133.753 41.76V42.696L130.849 43.032C128.401 43.392 126.889 44.448 126.889 46.728C126.889 49.104 128.449 50.232 130.681 50.232ZM131.521 48.288C130.393 48.288 129.601 47.76 129.601 46.584C129.601 45.336 130.249 44.832 131.473 44.736L133.753 44.496V47.544C133.297 47.976 132.409 48.288 131.521 48.288ZM144.934 50.232C146.638 50.232 147.79 49.776 148.582 49.272V47.256C147.958 47.544 146.926 48.024 145.414 48.024C143.062 48.024 141.886 46.824 141.886 43.992V43.44C141.886 40.968 143.158 39.672 145.222 39.672C146.686 39.672 147.43 39.936 148.462 40.344V38.184C147.67 37.752 146.686 37.44 145.054 37.44C141.622 37.44 139.03 39.456 139.03 43.728V44.112C139.03 48.192 141.286 50.232 144.934 50.232ZM150.976 50.016H153.736V32.472H150.976V50.016ZM158.344 50.016H161.392C161.176 49.656 157.072 43.776 156.856 43.464C157.048 43.176 160.84 37.968 161.08 37.68H158.2C158.008 37.992 154.168 43.296 153.976 43.632C154.168 43.944 158.128 49.68 158.344 50.016ZM170.155 50.016H175.579C180.859 50.016 183.427 47.112 183.427 41.832V41.352C183.427 35.976 180.595 33.552 175.555 33.552H170.155V50.016ZM173.107 47.688V35.88H175.387C178.507 35.88 180.307 37.176 180.307 41.328V42.12C180.307 46.104 178.819 47.688 175.603 47.688H173.107ZM191.579 50.232C193.667 50.232 195.107 49.632 195.947 49.08V47.16C194.867 47.712 193.715 48.072 192.131 48.072C189.779 48.072 188.459 47.16 188.291 44.592H196.355V43.44C196.355 39.504 194.771 37.464 191.123 37.464C187.979 37.464 185.459 39.504 185.459 43.656V43.992C185.459 47.904 187.475 50.232 191.579 50.232ZM191.075 39.504C192.683 39.504 193.547 40.368 193.547 42.696H188.291C188.483 40.176 189.803 39.504 191.075 39.504ZM202.031 50.016H204.839L209.303 37.656H206.639L203.615 46.68H203.495L200.495 37.656H197.543L202.031 50.016ZM216.868 50.232C218.957 50.232 220.397 49.632 221.237 49.08V47.16C220.157 47.712 219.005 48.072 217.421 48.072C215.069 48.072 213.749 47.16 213.581 44.592H221.645V43.44C221.645 39.504 220.061 37.464 216.413 37.464C213.269 37.464 210.749 39.504 210.749 43.656V43.992C210.749 47.904 212.765 50.232 216.868 50.232ZM216.365 39.504C217.973 39.504 218.837 40.368 218.837 42.696H213.581C213.773 40.176 215.093 39.504 216.365 39.504ZM224.243 50.016H227.027V32.472H224.243V50.016ZM235.519 50.232C238.975 50.232 241.375 47.952 241.375 43.968V43.632C241.375 39.696 239.239 37.44 235.543 37.44C232.063 37.44 229.663 39.744 229.663 43.704V44.088C229.663 47.952 231.751 50.232 235.519 50.232ZM235.567 48.144C233.839 48.144 232.495 47.28 232.495 44.088V43.512C232.495 40.848 233.599 39.528 235.495 39.528C237.175 39.528 238.495 40.392 238.495 43.608V44.208C238.495 46.872 237.415 48.144 235.567 48.144ZM243.929 53.592H246.689V49.536C247.289 49.872 248.201 50.232 249.569 50.232C252.929 50.232 255.161 48.408 255.161 43.776V43.464C255.161 38.928 252.833 37.44 250.265 37.44C248.705 37.44 247.433 37.968 246.689 38.712H246.593V37.656H243.929V53.592ZM249.185 48.144C248.105 48.144 247.169 47.808 246.689 47.424V40.416C247.169 40.08 248.105 39.696 249.281 39.696C251.225 39.696 252.281 40.584 252.281 43.632V44.136C252.281 47.136 251.153 48.144 249.185 48.144ZM263.204 50.232C265.292 50.232 266.732 49.632 267.572 49.08V47.16C266.492 47.712 265.34 48.072 263.756 48.072C261.404 48.072 260.084 47.16 259.916 44.592H267.98V43.44C267.98 39.504 266.396 37.464 262.748 37.464C259.604 37.464 257.084 39.504 257.084 43.656V43.992C257.084 47.904 259.1 50.232 263.204 50.232ZM262.7 39.504C264.308 39.504 265.172 40.368 265.172 42.696H259.916C260.108 40.176 261.428 39.504 262.7 39.504ZM270.53 50.016H273.29V40.824C274.082 40.32 275.186 40.008 276.29 40.008C276.578 40.008 276.986 40.032 277.298 40.08V37.632C277.178 37.584 276.866 37.56 276.53 37.56C275.234 37.56 273.962 38.208 273.29 39.096H273.194V37.656H270.53V50.016ZM126.68 82.28C131.144 82.28 134.216 79.376 134.216 74.048V73.52C134.216 68.024 131.216 65.288 126.824 65.288C122.336 65.288 119.288 68.216 119.288 73.52V74.048C119.288 79.496 122.24 82.28 126.68 82.28ZM126.776 80C123.632 80 122.432 77.744 122.432 74.024V73.184C122.432 69.848 123.824 67.592 126.68 67.592C129.872 67.616 131.072 69.848 131.072 73.544V74.36C131.072 77.72 129.656 80 126.776 80ZM136.444 67.16H137.908C137.884 68.072 137.236 68.984 136.444 69.176V70.688C138.412 70.328 139.612 68.648 139.612 66.464V64.112H136.444V67.16ZM146.145 82.208C149.169 82.208 150.873 80.936 150.873 78.368C150.873 76.232 149.937 75.272 147.513 74.72L146.337 74.456C145.161 74.168 144.681 73.856 144.681 72.992C144.681 72.032 145.449 71.552 146.889 71.552C148.281 71.552 149.481 71.912 150.201 72.224V70.136C149.385 69.776 148.329 69.464 146.649 69.464C143.529 69.464 142.065 70.928 142.065 73.208C142.065 75.416 143.313 76.376 145.209 76.76L146.361 77.024C147.705 77.312 148.185 77.744 148.185 78.632C148.185 79.544 147.465 80.12 145.737 80.12C144.009 80.12 143.097 79.76 142.065 79.352V81.368C143.097 81.92 144.537 82.208 146.145 82.208Z" fill="black"/>
</svg>
