<svg width="146" height="79" viewBox="0 0 146 79" fill="none" xmlns="http://www.w3.org/2000/svg">
<path d="M55.4453 8.0625V10.3945H46.3867V8.0625H55.4453ZM47.1133 0.9375V18H44.1719V0.9375H47.1133ZM57.707 0.9375V18H54.7773V0.9375H57.707ZM66.5195 18.2344C65.582 18.2344 64.7344 18.082 63.9766 17.7773C63.2266 17.4648 62.5859 17.0312 62.0547 16.4766C61.5312 15.9219 61.1289 15.2695 60.8477 14.5195C60.5664 13.7695 60.4258 12.9609 60.4258 12.0938V11.625C60.4258 10.6328 60.5703 9.73438 60.8594 8.92969C61.1484 8.125 61.5508 7.4375 62.0664 6.86719C62.582 6.28906 63.1914 5.84766 63.8945 5.54297C64.5977 5.23828 65.3594 5.08594 66.1797 5.08594C67.0859 5.08594 67.8789 5.23828 68.5586 5.54297C69.2383 5.84766 69.8008 6.27734 70.2461 6.83203C70.6992 7.37891 71.0352 8.03125 71.2539 8.78906C71.4805 9.54688 71.5938 10.3828 71.5938 11.2969V12.5039H61.7969V10.4766H68.8047V10.2539C68.7891 9.74609 68.6875 9.26953 68.5 8.82422C68.3203 8.37891 68.043 8.01953 67.668 7.74609C67.293 7.47266 66.793 7.33594 66.168 7.33594C65.6992 7.33594 65.2812 7.4375 64.9141 7.64062C64.5547 7.83594 64.2539 8.12109 64.0117 8.49609C63.7695 8.87109 63.582 9.32422 63.4492 9.85547C63.3242 10.3789 63.2617 10.9688 63.2617 11.625V12.0938C63.2617 12.6484 63.3359 13.1641 63.4844 13.6406C63.6406 14.1094 63.8672 14.5195 64.1641 14.8711C64.4609 15.2227 64.8203 15.5 65.2422 15.7031C65.6641 15.8984 66.1445 15.9961 66.6836 15.9961C67.3633 15.9961 67.9688 15.8594 68.5 15.5859C69.0312 15.3125 69.4922 14.9258 69.8828 14.4258L71.3711 15.8672C71.0977 16.2656 70.7422 16.6484 70.3047 17.0156C69.8672 17.375 69.332 17.668 68.6992 17.8945C68.0742 18.1211 67.3477 18.2344 66.5195 18.2344ZM76.8203 0V18H73.9844V0H76.8203ZM82.9375 0V18H80.1016V0H82.9375ZM85.4922 11.8008V11.5312C85.4922 10.6172 85.625 9.76953 85.8906 8.98828C86.1562 8.19922 86.5391 7.51562 87.0391 6.9375C87.5469 6.35156 88.1641 5.89844 88.8906 5.57812C89.625 5.25 90.4531 5.08594 91.375 5.08594C92.3047 5.08594 93.1328 5.25 93.8594 5.57812C94.5938 5.89844 95.2148 6.35156 95.7227 6.9375C96.2305 7.51562 96.6172 8.19922 96.8828 8.98828C97.1484 9.76953 97.2812 10.6172 97.2812 11.5312V11.8008C97.2812 12.7148 97.1484 13.5625 96.8828 14.3438C96.6172 15.125 96.2305 15.8086 95.7227 16.3945C95.2148 16.9727 94.5977 17.4258 93.8711 17.7539C93.1445 18.0742 92.3203 18.2344 91.3984 18.2344C90.4688 18.2344 89.6367 18.0742 88.9023 17.7539C88.1758 17.4258 87.5586 16.9727 87.0508 16.3945C86.543 15.8086 86.1562 15.125 85.8906 14.3438C85.625 13.5625 85.4922 12.7148 85.4922 11.8008ZM88.3164 11.5312V11.8008C88.3164 12.3711 88.375 12.9102 88.4922 13.418C88.6094 13.9258 88.793 14.3711 89.043 14.7539C89.293 15.1367 89.6133 15.4375 90.0039 15.6562C90.3945 15.875 90.8594 15.9844 91.3984 15.9844C91.9219 15.9844 92.375 15.875 92.7578 15.6562C93.1484 15.4375 93.4688 15.1367 93.7188 14.7539C93.9688 14.3711 94.1523 13.9258 94.2695 13.418C94.3945 12.9102 94.457 12.3711 94.457 11.8008V11.5312C94.457 10.9688 94.3945 10.4375 94.2695 9.9375C94.1523 9.42969 93.9648 8.98047 93.707 8.58984C93.457 8.19922 93.1367 7.89453 92.7461 7.67578C92.3633 7.44922 91.9062 7.33594 91.375 7.33594C90.8438 7.33594 90.3828 7.44922 89.9922 7.67578C89.6094 7.89453 89.293 8.19922 89.043 8.58984C88.793 8.98047 88.6094 9.42969 88.4922 9.9375C88.375 10.4375 88.3164 10.9688 88.3164 11.5312ZM102.297 15.2812L102.285 17.2969C102.285 18.0938 102.086 18.9141 101.688 19.7578C101.289 20.6016 100.762 21.2969 100.105 21.8438L98.5938 20.9648C98.8125 20.6133 99.0117 20.2578 99.1914 19.8984C99.3711 19.5391 99.5156 19.1562 99.625 18.75C99.7344 18.3438 99.7891 17.8945 99.7891 17.4023V15.2812H102.297ZM24.0859 28.9375V46H21.1445V28.9375H24.0859ZM30.1445 28V29.6523C30.1445 30.1445 30.0547 30.6562 29.875 31.1875C29.7031 31.7109 29.4609 32.2148 29.1484 32.6992C28.8359 33.1758 28.4766 33.5898 28.0703 33.9414L26.6523 33.0508C26.9727 32.5664 27.2305 32.0547 27.4258 31.5156C27.6289 30.9688 27.7305 30.3555 27.7305 29.6758V28H30.1445ZM35.2305 35.8984V46H32.4062V33.3203H35.0664L35.2305 35.8984ZM34.7734 39.1914L33.8125 39.1797C33.8125 38.3047 33.9219 37.4961 34.1406 36.7539C34.3594 36.0117 34.6797 35.3672 35.1016 34.8203C35.5234 34.2656 36.0469 33.8398 36.6719 33.543C37.3047 33.2383 38.0352 33.0859 38.8633 33.0859C39.4414 33.0859 39.9688 33.1719 40.4453 33.3438C40.9297 33.5078 41.3477 33.7695 41.6992 34.1289C42.0586 34.4883 42.332 34.9492 42.5195 35.5117C42.7148 36.0742 42.8125 36.7539 42.8125 37.5508V46H39.9883V37.7969C39.9883 37.1797 39.8945 36.6953 39.707 36.3438C39.5273 35.9922 39.2656 35.7422 38.9219 35.5938C38.5859 35.4375 38.1836 35.3594 37.7148 35.3594C37.1836 35.3594 36.7305 35.4609 36.3555 35.6641C35.9883 35.8672 35.6875 36.1445 35.4531 36.4961C35.2188 36.8477 35.0469 37.2539 34.9375 37.7148C34.8281 38.1758 34.7734 38.668 34.7734 39.1914ZM42.6367 38.4414L41.3125 38.7344C41.3125 37.9688 41.418 37.2461 41.6289 36.5664C41.8477 35.8789 42.1641 35.2773 42.5781 34.7617C43 34.2383 43.5195 33.8281 44.1367 33.5312C44.7539 33.2344 45.4609 33.0859 46.2578 33.0859C46.9062 33.0859 47.4844 33.1758 47.9922 33.3555C48.5078 33.5273 48.9453 33.8008 49.3047 34.1758C49.6641 34.5508 49.9375 35.0391 50.125 35.6406C50.3125 36.2344 50.4062 36.9531 50.4062 37.7969V46H47.5703V37.7852C47.5703 37.1445 47.4766 36.6484 47.2891 36.2969C47.1094 35.9453 46.8516 35.7031 46.5156 35.5703C46.1797 35.4297 45.7773 35.3594 45.3086 35.3594C44.8711 35.3594 44.4844 35.4414 44.1484 35.6055C43.8203 35.7617 43.543 35.9844 43.3164 36.2734C43.0898 36.5547 42.918 36.8789 42.8008 37.2461C42.6914 37.6133 42.6367 38.0117 42.6367 38.4414ZM66.2148 31.2109L61.1172 46H58.0352L64.457 28.9375H66.4258L66.2148 31.2109ZM70.4805 46L65.3711 31.2109L65.1484 28.9375H67.1289L73.5742 46H70.4805ZM70.2344 39.6719V42.0039H60.9531V39.6719H70.2344ZM82.6914 43.0117V33.3203H85.5273V46H82.8555L82.6914 43.0117ZM83.0898 40.375L84.0391 40.3516C84.0391 41.2031 83.9453 41.9883 83.7578 42.707C83.5703 43.418 83.2812 44.0391 82.8906 44.5703C82.5 45.0938 82 45.5039 81.3906 45.8008C80.7812 46.0898 80.0508 46.2344 79.1992 46.2344C78.582 46.2344 78.0156 46.1445 77.5 45.9648C76.9844 45.7852 76.5391 45.5078 76.1641 45.1328C75.7969 44.7578 75.5117 44.2695 75.3086 43.668C75.1055 43.0664 75.0039 42.3477 75.0039 41.5117V33.3203H77.8281V41.5352C77.8281 41.9961 77.8828 42.3828 77.9922 42.6953C78.1016 43 78.25 43.2461 78.4375 43.4336C78.625 43.6211 78.8438 43.7539 79.0938 43.832C79.3438 43.9102 79.6094 43.9492 79.8906 43.9492C80.6953 43.9492 81.3281 43.793 81.7891 43.4805C82.2578 43.1602 82.5898 42.7305 82.7852 42.1914C82.9883 41.6523 83.0898 41.0469 83.0898 40.375ZM95.5352 42.5664C95.5352 42.2852 95.4648 42.0312 95.3242 41.8047C95.1836 41.5703 94.9141 41.3594 94.5156 41.1719C94.125 40.9844 93.5469 40.8125 92.7812 40.6562C92.1094 40.5078 91.4922 40.332 90.9297 40.1289C90.375 39.918 89.8984 39.6641 89.5 39.3672C89.1016 39.0703 88.793 38.7188 88.5742 38.3125C88.3555 37.9062 88.2461 37.4375 88.2461 36.9062C88.2461 36.3906 88.3594 35.9023 88.5859 35.4414C88.8125 34.9805 89.1367 34.5742 89.5586 34.2227C89.9805 33.8711 90.4922 33.5938 91.0938 33.3906C91.7031 33.1875 92.3828 33.0859 93.1328 33.0859C94.1953 33.0859 95.1055 33.2656 95.8633 33.625C96.6289 33.9766 97.2148 34.457 97.6211 35.0664C98.0273 35.668 98.2305 36.3477 98.2305 37.1055H95.4062C95.4062 36.7695 95.3203 36.457 95.1484 36.168C94.9844 35.8711 94.7344 35.6328 94.3984 35.4531C94.0625 35.2656 93.6406 35.1719 93.1328 35.1719C92.6484 35.1719 92.2461 35.25 91.9258 35.4062C91.6133 35.5547 91.3789 35.75 91.2227 35.9922C91.0742 36.2344 91 36.5 91 36.7891C91 37 91.0391 37.1914 91.1172 37.3633C91.2031 37.5273 91.3438 37.6797 91.5391 37.8203C91.7344 37.9531 92 38.0781 92.3359 38.1953C92.6797 38.3125 93.1094 38.4258 93.625 38.5352C94.5938 38.7383 95.4258 39 96.1211 39.3203C96.8242 39.6328 97.3633 40.0391 97.7383 40.5391C98.1133 41.0312 98.3008 41.6562 98.3008 42.4141C98.3008 42.9766 98.1797 43.4922 97.9375 43.9609C97.7031 44.4219 97.3594 44.8242 96.9062 45.168C96.4531 45.5039 95.9102 45.7656 95.2773 45.9531C94.6523 46.1406 93.9492 46.2344 93.168 46.2344C92.0195 46.2344 91.0469 46.0312 90.25 45.625C89.4531 45.2109 88.8477 44.6836 88.4336 44.043C88.0273 43.3945 87.8242 42.7227 87.8242 42.0273H90.5547C90.5859 42.5508 90.7305 42.9688 90.9883 43.2812C91.2539 43.5859 91.582 43.8086 91.9727 43.9492C92.3711 44.082 92.7812 44.1484 93.2031 44.1484C93.7109 44.1484 94.1367 44.082 94.4805 43.9492C94.8242 43.8086 95.0859 43.6211 95.2656 43.3867C95.4453 43.1445 95.5352 42.8711 95.5352 42.5664ZM106.586 33.3203V35.3828H99.4375V33.3203H106.586ZM101.5 30.2148H104.324V42.4961C104.324 42.8867 104.379 43.1875 104.488 43.3984C104.605 43.6016 104.766 43.7383 104.969 43.8086C105.172 43.8789 105.41 43.9141 105.684 43.9141C105.879 43.9141 106.066 43.9023 106.246 43.8789C106.426 43.8555 106.57 43.832 106.68 43.8086L106.691 45.9648C106.457 46.0352 106.184 46.0977 105.871 46.1523C105.566 46.207 105.215 46.2344 104.816 46.2344C104.168 46.2344 103.594 46.1211 103.094 45.8945C102.594 45.6602 102.203 45.2812 101.922 44.7578C101.641 44.2344 101.5 43.5391 101.5 42.6719V30.2148ZM111.789 33.3203V46H108.953V33.3203H111.789ZM108.766 29.9922C108.766 29.5625 108.906 29.207 109.188 28.9258C109.477 28.6367 109.875 28.4922 110.383 28.4922C110.883 28.4922 111.277 28.6367 111.566 28.9258C111.855 29.207 112 29.5625 112 29.9922C112 30.4141 111.855 30.7656 111.566 31.0469C111.277 31.3281 110.883 31.4688 110.383 31.4688C109.875 31.4688 109.477 31.3281 109.188 31.0469C108.906 30.7656 108.766 30.4141 108.766 29.9922ZM117.684 36.0273V46H114.859V33.3203H117.52L117.684 36.0273ZM117.18 39.1914L116.266 39.1797C116.273 38.2812 116.398 37.457 116.641 36.707C116.891 35.957 117.234 35.3125 117.672 34.7734C118.117 34.2344 118.648 33.8203 119.266 33.5312C119.883 33.2344 120.57 33.0859 121.328 33.0859C121.938 33.0859 122.488 33.1719 122.98 33.3438C123.48 33.5078 123.906 33.7773 124.258 34.1523C124.617 34.5273 124.891 35.0156 125.078 35.6172C125.266 36.2109 125.359 36.9414 125.359 37.8086V46H122.523V37.7969C122.523 37.1875 122.434 36.707 122.254 36.3555C122.082 35.9961 121.828 35.7422 121.492 35.5938C121.164 35.4375 120.754 35.3594 120.262 35.3594C119.777 35.3594 119.344 35.4609 118.961 35.6641C118.578 35.8672 118.254 36.1445 117.988 36.4961C117.73 36.8477 117.531 37.2539 117.391 37.7148C117.25 38.1758 117.18 38.668 117.18 39.1914ZM7.46875 61.3203V63.3828H0.320312V61.3203H7.46875ZM2.38281 58.2148H5.20703V70.4961C5.20703 70.8867 5.26172 71.1875 5.37109 71.3984C5.48828 71.6016 5.64844 71.7383 5.85156 71.8086C6.05469 71.8789 6.29297 71.9141 6.56641 71.9141C6.76172 71.9141 6.94922 71.9023 7.12891 71.8789C7.30859 71.8555 7.45312 71.832 7.5625 71.8086L7.57422 73.9648C7.33984 74.0352 7.06641 74.0977 6.75391 74.1523C6.44922 74.207 6.09766 74.2344 5.69922 74.2344C5.05078 74.2344 4.47656 74.1211 3.97656 73.8945C3.47656 73.6602 3.08594 73.2812 2.80469 72.7578C2.52344 72.2344 2.38281 71.5391 2.38281 70.6719V58.2148ZM12.4375 56V74H9.625V56H12.4375ZM11.9453 67.1914L11.0312 67.1797C11.0391 66.3047 11.1602 65.4961 11.3945 64.7539C11.6367 64.0117 11.9727 63.3672 12.4023 62.8203C12.8398 62.2656 13.3633 61.8398 13.9727 61.543C14.582 61.2383 15.2578 61.0859 16 61.0859C16.625 61.0859 17.1875 61.1719 17.6875 61.3438C18.1953 61.5156 18.6328 61.793 19 62.1758C19.3672 62.5508 19.6445 63.043 19.832 63.6523C20.0273 64.2539 20.125 64.9883 20.125 65.8555V74H17.2891V65.832C17.2891 65.2227 17.1992 64.7383 17.0195 64.3789C16.8477 64.0195 16.5938 63.7617 16.2578 63.6055C15.9219 63.4414 15.5117 63.3594 15.0273 63.3594C14.5195 63.3594 14.0703 63.4609 13.6797 63.6641C13.2969 63.8672 12.9766 64.1445 12.7188 64.4961C12.4609 64.8477 12.2656 65.2539 12.1328 65.7148C12.0078 66.1758 11.9453 66.668 11.9453 67.1914ZM28.5742 74.2344C27.6367 74.2344 26.7891 74.082 26.0312 73.7773C25.2812 73.4648 24.6406 73.0312 24.1094 72.4766C23.5859 71.9219 23.1836 71.2695 22.9023 70.5195C22.6211 69.7695 22.4805 68.9609 22.4805 68.0938V67.625C22.4805 66.6328 22.625 65.7344 22.9141 64.9297C23.2031 64.125 23.6055 63.4375 24.1211 62.8672C24.6367 62.2891 25.2461 61.8477 25.9492 61.543C26.6523 61.2383 27.4141 61.0859 28.2344 61.0859C29.1406 61.0859 29.9336 61.2383 30.6133 61.543C31.293 61.8477 31.8555 62.2773 32.3008 62.832C32.7539 63.3789 33.0898 64.0312 33.3086 64.7891C33.5352 65.5469 33.6484 66.3828 33.6484 67.2969V68.5039H23.8516V66.4766H30.8594V66.2539C30.8438 65.7461 30.7422 65.2695 30.5547 64.8242C30.375 64.3789 30.0977 64.0195 29.7227 63.7461C29.3477 63.4727 28.8477 63.3359 28.2227 63.3359C27.7539 63.3359 27.3359 63.4375 26.9688 63.6406C26.6094 63.8359 26.3086 64.1211 26.0664 64.4961C25.8242 64.8711 25.6367 65.3242 25.5039 65.8555C25.3789 66.3789 25.3164 66.9688 25.3164 67.625V68.0938C25.3164 68.6484 25.3906 69.1641 25.5391 69.6406C25.6953 70.1094 25.9219 70.5195 26.2188 70.8711C26.5156 71.2227 26.875 71.5 27.2969 71.7031C27.7188 71.8984 28.1992 71.9961 28.7383 71.9961C29.418 71.9961 30.0234 71.8594 30.5547 71.5859C31.0859 71.3125 31.5469 70.9258 31.9375 70.4258L33.4258 71.8672C33.1523 72.2656 32.7969 72.6484 32.3594 73.0156C31.9219 73.375 31.3867 73.668 30.7539 73.8945C30.1289 74.1211 29.4023 74.2344 28.5742 74.2344ZM49.5625 71.375V56H52.3984V74H49.832L49.5625 71.375ZM41.3125 67.8008V67.5547C41.3125 66.5938 41.4258 65.7188 41.6523 64.9297C41.8789 64.1328 42.207 63.4492 42.6367 62.8789C43.0664 62.3008 43.5898 61.8594 44.207 61.5547C44.8242 61.2422 45.5195 61.0859 46.293 61.0859C47.0586 61.0859 47.7305 61.2344 48.3086 61.5312C48.8867 61.8281 49.3789 62.2539 49.7852 62.8086C50.1914 63.3555 50.5156 64.0117 50.7578 64.7773C51 65.5352 51.1719 66.3789 51.2734 67.3086V68.0938C51.1719 69 51 69.8281 50.7578 70.5781C50.5156 71.3281 50.1914 71.9766 49.7852 72.5234C49.3789 73.0703 48.8828 73.4922 48.2969 73.7891C47.7188 74.0859 47.043 74.2344 46.2695 74.2344C45.5039 74.2344 44.8125 74.0742 44.1953 73.7539C43.5859 73.4336 43.0664 72.9844 42.6367 72.4062C42.207 71.8281 41.8789 71.1484 41.6523 70.3672C41.4258 69.5781 41.3125 68.7227 41.3125 67.8008ZM44.1367 67.5547V67.8008C44.1367 68.3789 44.1875 68.918 44.2891 69.418C44.3984 69.918 44.5664 70.3594 44.793 70.7422C45.0195 71.1172 45.3125 71.4141 45.6719 71.6328C46.0391 71.8438 46.4766 71.9492 46.9844 71.9492C47.625 71.9492 48.1523 71.8086 48.5664 71.5273C48.9805 71.2461 49.3047 70.8672 49.5391 70.3906C49.7812 69.9062 49.9453 69.3672 50.0312 68.7734V66.6523C49.9844 66.1914 49.8867 65.7617 49.7383 65.3633C49.5977 64.9648 49.4062 64.6172 49.1641 64.3203C48.9219 64.0156 48.6211 63.7812 48.2617 63.6172C47.9102 63.4453 47.4922 63.3594 47.0078 63.3594C46.4922 63.3594 46.0547 63.4688 45.6953 63.6875C45.3359 63.9062 45.0391 64.207 44.8047 64.5898C44.5781 64.9727 44.4102 65.418 44.3008 65.9258C44.1914 66.4336 44.1367 66.9766 44.1367 67.5547ZM60.9414 74.2344C60.0039 74.2344 59.1562 74.082 58.3984 73.7773C57.6484 73.4648 57.0078 73.0312 56.4766 72.4766C55.9531 71.9219 55.5508 71.2695 55.2695 70.5195C54.9883 69.7695 54.8477 68.9609 54.8477 68.0938V67.625C54.8477 66.6328 54.9922 65.7344 55.2812 64.9297C55.5703 64.125 55.9727 63.4375 56.4883 62.8672C57.0039 62.2891 57.6133 61.8477 58.3164 61.543C59.0195 61.2383 59.7812 61.0859 60.6016 61.0859C61.5078 61.0859 62.3008 61.2383 62.9805 61.543C63.6602 61.8477 64.2227 62.2773 64.668 62.832C65.1211 63.3789 65.457 64.0312 65.6758 64.7891C65.9023 65.5469 66.0156 66.3828 66.0156 67.2969V68.5039H56.2188V66.4766H63.2266V66.2539C63.2109 65.7461 63.1094 65.2695 62.9219 64.8242C62.7422 64.3789 62.4648 64.0195 62.0898 63.7461C61.7148 63.4727 61.2148 63.3359 60.5898 63.3359C60.1211 63.3359 59.7031 63.4375 59.3359 63.6406C58.9766 63.8359 58.6758 64.1211 58.4336 64.4961C58.1914 64.8711 58.0039 65.3242 57.8711 65.8555C57.7461 66.3789 57.6836 66.9688 57.6836 67.625V68.0938C57.6836 68.6484 57.7578 69.1641 57.9062 69.6406C58.0625 70.1094 58.2891 70.5195 58.5859 70.8711C58.8828 71.2227 59.2422 71.5 59.6641 71.7031C60.0859 71.8984 60.5664 71.9961 61.1055 71.9961C61.7852 71.9961 62.3906 71.8594 62.9219 71.5859C63.4531 71.3125 63.9141 70.9258 64.3047 70.4258L65.793 71.8672C65.5195 72.2656 65.1641 72.6484 64.7266 73.0156C64.2891 73.375 63.7539 73.668 63.1211 73.8945C62.4961 74.1211 61.7695 74.2344 60.9414 74.2344ZM72.1797 71.7617L75.2852 61.3203H78.2148L73.8086 74H71.9805L72.1797 71.7617ZM69.8008 61.3203L72.9648 71.8086L73.1172 74H71.2891L66.8594 61.3203H69.8008ZM85.3867 74.2344C84.4492 74.2344 83.6016 74.082 82.8438 73.7773C82.0938 73.4648 81.4531 73.0312 80.9219 72.4766C80.3984 71.9219 79.9961 71.2695 79.7148 70.5195C79.4336 69.7695 79.293 68.9609 79.293 68.0938V67.625C79.293 66.6328 79.4375 65.7344 79.7266 64.9297C80.0156 64.125 80.418 63.4375 80.9336 62.8672C81.4492 62.2891 82.0586 61.8477 82.7617 61.543C83.4648 61.2383 84.2266 61.0859 85.0469 61.0859C85.9531 61.0859 86.7461 61.2383 87.4258 61.543C88.1055 61.8477 88.668 62.2773 89.1133 62.832C89.5664 63.3789 89.9023 64.0312 90.1211 64.7891C90.3477 65.5469 90.4609 66.3828 90.4609 67.2969V68.5039H80.6641V66.4766H87.6719V66.2539C87.6562 65.7461 87.5547 65.2695 87.3672 64.8242C87.1875 64.3789 86.9102 64.0195 86.5352 63.7461C86.1602 63.4727 85.6602 63.3359 85.0352 63.3359C84.5664 63.3359 84.1484 63.4375 83.7812 63.6406C83.4219 63.8359 83.1211 64.1211 82.8789 64.4961C82.6367 64.8711 82.4492 65.3242 82.3164 65.8555C82.1914 66.3789 82.1289 66.9688 82.1289 67.625V68.0938C82.1289 68.6484 82.2031 69.1641 82.3516 69.6406C82.5078 70.1094 82.7344 70.5195 83.0312 70.8711C83.3281 71.2227 83.6875 71.5 84.1094 71.7031C84.5312 71.8984 85.0117 71.9961 85.5508 71.9961C86.2305 71.9961 86.8359 71.8594 87.3672 71.5859C87.8984 71.3125 88.3594 70.9258 88.75 70.4258L90.2383 71.8672C89.9648 72.2656 89.6094 72.6484 89.1719 73.0156C88.7344 73.375 88.1992 73.668 87.5664 73.8945C86.9414 74.1211 86.2148 74.2344 85.3867 74.2344ZM95.6875 56V74H92.8516V56H95.6875ZM98.2422 67.8008V67.5312C98.2422 66.6172 98.375 65.7695 98.6406 64.9883C98.9062 64.1992 99.2891 63.5156 99.7891 62.9375C100.297 62.3516 100.914 61.8984 101.641 61.5781C102.375 61.25 103.203 61.0859 104.125 61.0859C105.055 61.0859 105.883 61.25 106.609 61.5781C107.344 61.8984 107.965 62.3516 108.473 62.9375C108.98 63.5156 109.367 64.1992 109.633 64.9883C109.898 65.7695 110.031 66.6172 110.031 67.5312V67.8008C110.031 68.7148 109.898 69.5625 109.633 70.3438C109.367 71.125 108.98 71.8086 108.473 72.3945C107.965 72.9727 107.348 73.4258 106.621 73.7539C105.895 74.0742 105.07 74.2344 104.148 74.2344C103.219 74.2344 102.387 74.0742 101.652 73.7539C100.926 73.4258 100.309 72.9727 99.8008 72.3945C99.293 71.8086 98.9062 71.125 98.6406 70.3438C98.375 69.5625 98.2422 68.7148 98.2422 67.8008ZM101.066 67.5312V67.8008C101.066 68.3711 101.125 68.9102 101.242 69.418C101.359 69.9258 101.543 70.3711 101.793 70.7539C102.043 71.1367 102.363 71.4375 102.754 71.6562C103.145 71.875 103.609 71.9844 104.148 71.9844C104.672 71.9844 105.125 71.875 105.508 71.6562C105.898 71.4375 106.219 71.1367 106.469 70.7539C106.719 70.3711 106.902 69.9258 107.02 69.418C107.145 68.9102 107.207 68.3711 107.207 67.8008V67.5312C107.207 66.9688 107.145 66.4375 107.02 65.9375C106.902 65.4297 106.715 64.9805 106.457 64.5898C106.207 64.1992 105.887 63.8945 105.496 63.6758C105.113 63.4492 104.656 63.3359 104.125 63.3359C103.594 63.3359 103.133 63.4492 102.742 63.6758C102.359 63.8945 102.043 64.1992 101.793 64.5898C101.543 64.9805 101.359 65.4297 101.242 65.9375C101.125 66.4375 101.066 66.9688 101.066 67.5312ZM115.234 63.7578V78.875H112.41V61.3203H115.012L115.234 63.7578ZM123.496 67.543V67.7891C123.496 68.7109 123.387 69.5664 123.168 70.3555C122.957 71.1367 122.641 71.8203 122.219 72.4062C121.805 72.9844 121.293 73.4336 120.684 73.7539C120.074 74.0742 119.371 74.2344 118.574 74.2344C117.785 74.2344 117.094 74.0898 116.5 73.8008C115.914 73.5039 115.418 73.0859 115.012 72.5469C114.605 72.0078 114.277 71.375 114.027 70.6484C113.785 69.9141 113.613 69.1094 113.512 68.2344V67.2852C113.613 66.3555 113.785 65.5117 114.027 64.7539C114.277 63.9961 114.605 63.3438 115.012 62.7969C115.418 62.25 115.914 61.8281 116.5 61.5312C117.086 61.2344 117.77 61.0859 118.551 61.0859C119.348 61.0859 120.055 61.2422 120.672 61.5547C121.289 61.8594 121.809 62.2969 122.23 62.8672C122.652 63.4297 122.969 64.1094 123.18 64.9062C123.391 65.6953 123.496 66.5742 123.496 67.543ZM120.672 67.7891V67.543C120.672 66.957 120.617 66.4141 120.508 65.9141C120.398 65.4062 120.227 64.9609 119.992 64.5781C119.758 64.1953 119.457 63.8984 119.09 63.6875C118.73 63.4688 118.297 63.3594 117.789 63.3594C117.289 63.3594 116.859 63.4453 116.5 63.6172C116.141 63.7812 115.84 64.0117 115.598 64.3086C115.355 64.6055 115.168 64.9531 115.035 65.3516C114.902 65.7422 114.809 66.168 114.754 66.6289V68.9023C114.848 69.4648 115.008 69.9805 115.234 70.4492C115.461 70.918 115.781 71.293 116.195 71.5742C116.617 71.8477 117.156 71.9844 117.812 71.9844C118.32 71.9844 118.754 71.875 119.113 71.6562C119.473 71.4375 119.766 71.1367 119.992 70.7539C120.227 70.3633 120.398 69.9141 120.508 69.4062C120.617 68.8984 120.672 68.3594 120.672 67.7891ZM131.488 74.2344C130.551 74.2344 129.703 74.082 128.945 73.7773C128.195 73.4648 127.555 73.0312 127.023 72.4766C126.5 71.9219 126.098 71.2695 125.816 70.5195C125.535 69.7695 125.395 68.9609 125.395 68.0938V67.625C125.395 66.6328 125.539 65.7344 125.828 64.9297C126.117 64.125 126.52 63.4375 127.035 62.8672C127.551 62.2891 128.16 61.8477 128.863 61.543C129.566 61.2383 130.328 61.0859 131.148 61.0859C132.055 61.0859 132.848 61.2383 133.527 61.543C134.207 61.8477 134.77 62.2773 135.215 62.832C135.668 63.3789 136.004 64.0312 136.223 64.7891C136.449 65.5469 136.562 66.3828 136.562 67.2969V68.5039H126.766V66.4766H133.773V66.2539C133.758 65.7461 133.656 65.2695 133.469 64.8242C133.289 64.3789 133.012 64.0195 132.637 63.7461C132.262 63.4727 131.762 63.3359 131.137 63.3359C130.668 63.3359 130.25 63.4375 129.883 63.6406C129.523 63.8359 129.223 64.1211 128.98 64.4961C128.738 64.8711 128.551 65.3242 128.418 65.8555C128.293 66.3789 128.23 66.9688 128.23 67.625V68.0938C128.23 68.6484 128.305 69.1641 128.453 69.6406C128.609 70.1094 128.836 70.5195 129.133 70.8711C129.43 71.2227 129.789 71.5 130.211 71.7031C130.633 71.8984 131.113 71.9961 131.652 71.9961C132.332 71.9961 132.938 71.8594 133.469 71.5859C134 71.3125 134.461 70.9258 134.852 70.4258L136.34 71.8672C136.066 72.2656 135.711 72.6484 135.273 73.0156C134.836 73.375 134.301 73.668 133.668 73.8945C133.043 74.1211 132.316 74.2344 131.488 74.2344ZM141.602 63.7344V74H138.777V61.3203H141.473L141.602 63.7344ZM145.48 61.2383L145.457 63.8633C145.285 63.832 145.098 63.8086 144.895 63.793C144.699 63.7773 144.504 63.7695 144.309 63.7695C143.824 63.7695 143.398 63.8398 143.031 63.9805C142.664 64.1133 142.355 64.3086 142.105 64.5664C141.863 64.8164 141.676 65.1211 141.543 65.4805C141.41 65.8398 141.332 66.2422 141.309 66.6875L140.664 66.7344C140.664 65.9375 140.742 65.1992 140.898 64.5195C141.055 63.8398 141.289 63.2422 141.602 62.7266C141.922 62.2109 142.32 61.8086 142.797 61.5195C143.281 61.2305 143.84 61.0859 144.473 61.0859C144.645 61.0859 144.828 61.1016 145.023 61.1328C145.227 61.1641 145.379 61.1992 145.48 61.2383Z" fill="black"/>
</svg>
