<svg width="149" height="86" viewBox="0 0 149 86" fill="none" xmlns="http://www.w3.org/2000/svg">
<path d="M45.7174 18.016H48.6694V10.672H55.6774V18.016H58.6294V1.552H55.6774V8.344H48.6694V1.552H45.7174V18.016ZM67.6107 18.232C69.6987 18.232 71.1387 17.632 71.9787 17.08V15.16C70.8987 15.712 69.7467 16.072 68.1627 16.072C65.8107 16.072 64.4907 15.16 64.3227 12.592H72.3867V11.44C72.3867 7.504 70.8027 5.464 67.1547 5.464C64.0107 5.464 61.4907 7.504 61.4907 11.656V11.992C61.4907 15.904 63.5067 18.232 67.6107 18.232ZM67.1067 7.504C68.7147 7.504 69.5787 8.368 69.5787 10.696H64.3227C64.5147 8.176 65.8347 7.504 67.1067 7.504ZM74.9847 18.016H77.7687V0.472H74.9847V18.016ZM81.1488 18.016H83.9328V0.472H81.1488V18.016ZM92.4248 18.232C95.8808 18.232 98.2808 15.952 98.2808 11.968V11.632C98.2808 7.696 96.1448 5.44 92.4488 5.44C88.9688 5.44 86.5688 7.744 86.5688 11.704V12.088C86.5688 15.952 88.6568 18.232 92.4248 18.232ZM92.4728 16.144C90.7448 16.144 89.4008 15.28 89.4008 12.088V11.512C89.4008 8.848 90.5048 7.528 92.4008 7.528C94.0808 7.528 95.4008 8.392 95.4008 11.608V12.208C95.4008 14.872 94.3208 16.144 92.4728 16.144ZM99.8991 21.256H102.155L103.883 16.408H100.859L99.8991 21.256ZM1.03553 50.016H4.01153V33.552H1.03553V50.016ZM7.15534 35.16H8.61934C8.59534 36.072 7.94734 36.984 7.15534 37.176V38.688C9.12334 38.328 10.3233 36.648 10.3233 34.464V32.112H7.15534V35.16ZM13.4718 50.016H16.2318V40.416C16.9758 40.032 17.8878 39.744 18.7758 39.744C20.1678 39.744 20.6718 40.248 20.6718 41.472V50.016H23.3838V40.992C23.3838 40.752 23.3598 40.632 23.3358 40.44C24.2718 39.984 25.0878 39.744 25.9038 39.744C27.3198 39.744 27.7998 40.248 27.7998 41.472V50.016H30.5358V40.824C30.5358 38.376 29.3118 37.44 27.1278 37.44C25.7358 37.44 24.3438 37.968 23.0718 38.832H22.9278C22.3758 37.872 21.4158 37.44 19.9998 37.44C18.5598 37.44 17.2878 38.016 16.2318 38.76H16.1358V37.656H13.4718V50.016ZM44.2505 50.304C48.2345 50.304 50.1305 48.36 50.1305 45.24C50.1305 42.312 48.5705 41.232 45.9785 40.488L44.4425 40.008C42.8105 39.552 42.3305 39 42.3305 37.704C42.3305 36.384 43.2905 35.664 45.0185 35.664C46.8425 35.664 48.1865 36.048 49.2185 36.48V34.176C48.3065 33.696 47.1305 33.288 44.9705 33.288C41.2505 33.288 39.4505 35.184 39.4505 37.968C39.4505 40.752 40.8665 42 43.1945 42.648L44.7545 43.08C46.5545 43.632 47.1545 44.16 47.1545 45.528C47.1545 47.016 46.2185 47.928 44.0105 47.928C42.2105 47.928 40.6505 47.496 39.3305 46.92V49.248C40.4585 49.848 42.0905 50.304 44.2505 50.304ZM58.224 50.232C60.312 50.232 61.752 49.632 62.592 49.08V47.16C61.512 47.712 60.36 48.072 58.776 48.072C56.424 48.072 55.104 47.16 54.936 44.592H63V43.44C63 39.504 61.416 37.464 57.768 37.464C54.624 37.464 52.104 39.504 52.104 43.656V43.992C52.104 47.904 54.12 50.232 58.224 50.232ZM57.72 39.504C59.328 39.504 60.192 40.368 60.192 42.696H54.936C55.128 40.176 56.448 39.504 57.72 39.504ZM70.71 50.232C74.166 50.232 76.566 47.952 76.566 43.968V43.632C76.566 39.696 74.43 37.44 70.734 37.44C67.254 37.44 64.854 39.744 64.854 43.704V44.088C64.854 47.952 66.942 50.232 70.71 50.232ZM70.758 48.144C69.03 48.144 67.686 47.28 67.686 44.088V43.512C67.686 40.848 68.79 39.528 70.686 39.528C72.366 39.528 73.686 40.392 73.686 43.608V44.208C73.686 46.872 72.606 48.144 70.758 48.144ZM79.1203 50.016H81.8803V40.416C82.6243 40.056 83.7043 39.744 84.6643 39.744C86.3443 39.744 86.7523 40.248 86.7523 41.496V50.016H89.5363V40.848C89.5363 38.4 88.3123 37.44 85.9363 37.44C84.4483 37.44 82.9363 37.992 81.8803 38.76H81.7843V37.656H79.1203V50.016ZM96.1215 50.208C99.1455 50.208 100.849 48.936 100.849 46.368C100.849 44.232 99.9135 43.272 97.4895 42.72L96.3135 42.456C95.1375 42.168 94.6575 41.856 94.6575 40.992C94.6575 40.032 95.4255 39.552 96.8655 39.552C98.2575 39.552 99.4575 39.912 100.177 40.224V38.136C99.3615 37.776 98.3055 37.464 96.6255 37.464C93.5055 37.464 92.0415 38.928 92.0415 41.208C92.0415 43.416 93.2895 44.376 95.1855 44.76L96.3375 45.024C97.6815 45.312 98.1615 45.744 98.1615 46.632C98.1615 47.544 97.4415 48.12 95.7135 48.12C93.9855 48.12 93.0735 47.76 92.0415 47.352V49.368C93.0735 49.92 94.5135 50.208 96.1215 50.208ZM103.473 50.016H106.257V37.656H103.473V50.016ZM103.473 35.616H106.281V33.096H103.473V35.616ZM109.589 50.016H112.349V32.472H109.589V50.016ZM116.957 50.016H120.005C119.789 49.656 115.685 43.776 115.469 43.464C115.661 43.176 119.453 37.968 119.693 37.68H116.813C116.621 37.992 112.781 43.296 112.589 43.632C112.781 43.944 116.741 49.68 116.957 50.016ZM121.216 53.256H123.472L125.2 48.408H122.176L121.216 53.256ZM141.344 50.28C145.808 50.28 148.88 47.376 148.88 42.048V41.52C148.88 36.024 145.88 33.288 141.488 33.288C137 33.288 133.952 36.216 133.952 41.52V42.048C133.952 47.496 136.904 50.28 141.344 50.28ZM141.44 48C138.296 48 137.096 45.744 137.096 42.024V41.184C137.096 37.848 138.488 35.592 141.344 35.592C144.536 35.616 145.736 37.848 145.736 41.544V42.36C145.736 45.72 144.32 48 141.44 48ZM5.85991 82.16C7.01191 82.16 7.68391 81.896 8.16391 81.656V79.808C7.73191 79.928 7.22791 80 6.74791 80C5.45191 80 5.06791 79.616 5.06791 78.584V71.816H8.01991V69.656H5.06791V66.752H2.35591V69.656H0.627906V71.816H2.35591V78.968C2.35591 81.296 3.72391 82.16 5.85991 82.16ZM10.6828 82.016H13.4428V72.416C14.1868 72.056 15.2668 71.744 16.2268 71.744C17.9068 71.744 18.3148 72.248 18.3148 73.496V82.016H21.0988V72.848C21.0988 70.4 19.8748 69.44 17.4988 69.44C16.0108 69.44 14.5708 69.968 13.5628 70.712H13.4428V64.472H10.6828V82.016ZM29.724 82.232C31.812 82.232 33.252 81.632 34.092 81.08V79.16C33.012 79.712 31.86 80.072 30.276 80.072C27.924 80.072 26.604 79.16 26.436 76.592H34.5V75.44C34.5 71.504 32.916 69.464 29.268 69.464C26.124 69.464 23.604 71.504 23.604 75.656V75.992C23.604 79.904 25.62 82.232 29.724 82.232ZM29.22 71.504C30.828 71.504 31.692 72.368 31.692 74.696H26.436C26.628 72.176 27.948 71.504 29.22 71.504ZM47.7467 82.232C49.3307 82.232 50.4827 81.752 51.2507 81.032H51.3467L51.5867 82.016H53.9387V64.472H51.2027V70.136C50.6267 69.824 49.6907 69.44 48.2507 69.44C45.0347 69.44 42.7307 71.36 42.7307 75.896V76.208C42.7307 80.672 45.2987 82.232 47.7467 82.232ZM48.7067 80.096C46.8347 80.096 45.5627 79.16 45.5627 76.088V75.632C45.5627 72.584 46.7627 71.576 48.6827 71.576C49.7867 71.576 50.7467 71.864 51.2027 72.224V79.256C50.7227 79.616 49.8587 80.096 48.7067 80.096ZM62.6302 82.232C64.7182 82.232 66.1582 81.632 66.9982 81.08V79.16C65.9182 79.712 64.7662 80.072 63.1822 80.072C60.8302 80.072 59.5102 79.16 59.3422 76.592H67.4062V75.44C67.4062 71.504 65.8222 69.464 62.1742 69.464C59.0302 69.464 56.5102 71.504 56.5102 75.656V75.992C56.5102 79.904 58.5262 82.232 62.6302 82.232ZM62.1262 71.504C63.7342 71.504 64.5982 72.368 64.5982 74.696H59.3422C59.5342 72.176 60.8542 71.504 62.1262 71.504ZM73.0818 82.016H75.8898L80.3538 69.656H77.6898L74.6658 78.68H74.5458L71.5458 69.656H68.5938L73.0818 82.016ZM87.9193 82.232C90.0073 82.232 91.4473 81.632 92.2873 81.08V79.16C91.2073 79.712 90.0553 80.072 88.4713 80.072C86.1193 80.072 84.7993 79.16 84.6313 76.592H92.6953V75.44C92.6953 71.504 91.1113 69.464 87.4633 69.464C84.3193 69.464 81.7993 71.504 81.7993 75.656V75.992C81.7993 79.904 83.8153 82.232 87.9193 82.232ZM87.4153 71.504C89.0233 71.504 89.8873 72.368 89.8873 74.696H84.6313C84.8233 72.176 86.1433 71.504 87.4153 71.504ZM95.2933 82.016H98.0773V64.472H95.2933V82.016ZM106.569 82.232C110.025 82.232 112.425 79.952 112.425 75.968V75.632C112.425 71.696 110.289 69.44 106.593 69.44C103.113 69.44 100.713 71.744 100.713 75.704V76.088C100.713 79.952 102.801 82.232 106.569 82.232ZM106.617 80.144C104.889 80.144 103.545 79.28 103.545 76.088V75.512C103.545 72.848 104.649 71.528 106.545 71.528C108.225 71.528 109.545 72.392 109.545 75.608V76.208C109.545 78.872 108.465 80.144 106.617 80.144ZM114.98 85.592H117.74V81.536C118.34 81.872 119.252 82.232 120.62 82.232C123.98 82.232 126.212 80.408 126.212 75.776V75.464C126.212 70.928 123.884 69.44 121.316 69.44C119.756 69.44 118.484 69.968 117.74 70.712H117.644V69.656H114.98V85.592ZM120.236 80.144C119.156 80.144 118.22 79.808 117.74 79.424V72.416C118.22 72.08 119.156 71.696 120.332 71.696C122.276 71.696 123.332 72.584 123.332 75.632V76.136C123.332 79.136 122.204 80.144 120.236 80.144ZM134.255 82.232C136.343 82.232 137.783 81.632 138.623 81.08V79.16C137.543 79.712 136.391 80.072 134.807 80.072C132.455 80.072 131.135 79.16 130.967 76.592H139.031V75.44C139.031 71.504 137.447 69.464 133.799 69.464C130.655 69.464 128.135 71.504 128.135 75.656V75.992C128.135 79.904 130.151 82.232 134.255 82.232ZM133.751 71.504C135.359 71.504 136.223 72.368 136.223 74.696H130.967C131.159 72.176 132.479 71.504 133.751 71.504ZM141.581 82.016H144.341V72.824C145.133 72.32 146.237 72.008 147.341 72.008C147.629 72.008 148.037 72.032 148.349 72.08V69.632C148.229 69.584 147.917 69.56 147.581 69.56C146.285 69.56 145.013 70.208 144.341 71.096H144.245V69.656H141.581V82.016Z" fill="black"/>
</svg>
