<svg width="211" height="54" viewBox="0 0 211 54" fill="none" xmlns="http://www.w3.org/2000/svg">
<path d="M76.2174 18.016H79.1694V10.672H86.1774V18.016H89.1294V1.552H86.1774V8.344H79.1694V1.552H76.2174V18.016ZM98.1107 18.232C100.199 18.232 101.639 17.632 102.479 17.08V15.16C101.399 15.712 100.247 16.072 98.6627 16.072C96.3107 16.072 94.9907 15.16 94.8227 12.592H102.887V11.44C102.887 7.504 101.303 5.464 97.6547 5.464C94.5107 5.464 91.9907 7.504 91.9907 11.656V11.992C91.9907 15.904 94.0067 18.232 98.1107 18.232ZM97.6067 7.504C99.2147 7.504 100.079 8.368 100.079 10.696H94.8227C95.0147 8.176 96.3347 7.504 97.6067 7.504ZM105.485 18.016H108.269V0.472H105.485V18.016ZM111.649 18.016H114.433V0.472H111.649V18.016ZM122.925 18.232C126.381 18.232 128.781 15.952 128.781 11.968V11.632C128.781 7.696 126.645 5.44 122.949 5.44C119.469 5.44 117.069 7.744 117.069 11.704V12.088C117.069 15.952 119.157 18.232 122.925 18.232ZM122.973 16.144C121.245 16.144 119.901 15.28 119.901 12.088V11.512C119.901 8.848 121.005 7.528 122.901 7.528C124.581 7.528 125.901 8.392 125.901 11.608V12.208C125.901 14.872 124.821 16.144 122.973 16.144ZM130.399 21.256H132.655L134.383 16.408H131.359L130.399 21.256ZM0.199594 50.016H3.17559V33.552H0.199594V50.016ZM6.31941 35.16H7.78341C7.75941 36.072 7.11141 36.984 6.31941 37.176V38.688C8.28741 38.328 9.48741 36.648 9.48741 34.464V32.112H6.31941V35.16ZM12.6359 50.016H15.3959V40.416C16.1399 40.032 17.0519 39.744 17.9399 39.744C19.3319 39.744 19.8359 40.248 19.8359 41.472V50.016H22.5479V40.992C22.5479 40.752 22.5239 40.632 22.4999 40.44C23.4359 39.984 24.2519 39.744 25.0679 39.744C26.4839 39.744 26.9639 40.248 26.9639 41.472V50.016H29.6999V40.824C29.6999 38.376 28.4759 37.44 26.2919 37.44C24.8999 37.44 23.5079 37.968 22.2359 38.832H22.0919C21.5399 37.872 20.5799 37.44 19.1639 37.44C17.7239 37.44 16.4519 38.016 15.3959 38.76H15.2999V37.656H12.6359V50.016ZM39.2386 50.016H42.0226V32.472H39.2386V50.016ZM50.5147 50.232C53.9707 50.232 56.3707 47.952 56.3707 43.968V43.632C56.3707 39.696 54.2347 37.44 50.5387 37.44C47.0587 37.44 44.6587 39.744 44.6587 43.704V44.088C44.6587 47.952 46.7467 50.232 50.5147 50.232ZM50.5627 48.144C48.8347 48.144 47.4907 47.28 47.4907 44.088V43.512C47.4907 40.848 48.5947 39.528 50.4907 39.528C52.1707 39.528 53.4907 40.392 53.4907 43.608V44.208C53.4907 46.872 52.4107 48.144 50.5627 48.144ZM64.085 50.232C67.541 50.232 69.941 47.952 69.941 43.968V43.632C69.941 39.696 67.805 37.44 64.109 37.44C60.629 37.44 58.229 39.744 58.229 43.704V44.088C58.229 47.952 60.317 50.232 64.085 50.232ZM64.133 48.144C62.405 48.144 61.061 47.28 61.061 44.088V43.512C61.061 40.848 62.165 39.528 64.061 39.528C65.741 39.528 67.061 40.392 67.061 43.608V44.208C67.061 46.872 65.981 48.144 64.133 48.144ZM72.4953 50.016H75.2553V32.472H72.4953V50.016ZM79.8633 50.016H82.9113C82.6953 49.656 78.5913 43.776 78.3753 43.464C78.5673 43.176 82.3593 37.968 82.5993 37.68H79.7193C79.5273 37.992 75.6873 43.296 75.4953 43.632C75.6873 43.944 79.6473 49.68 79.8633 50.016ZM85.1058 50.016H87.8898V37.656H85.1058V50.016ZM85.1058 35.616H87.9138V33.096H85.1058V35.616ZM91.2218 50.016H93.9818V40.416C94.7258 40.056 95.8058 39.744 96.7658 39.744C98.4458 39.744 98.8538 40.248 98.8538 41.496V50.016H101.638V40.848C101.638 38.4 100.414 37.44 98.0378 37.44C96.5498 37.44 95.0378 37.992 93.9818 38.76H93.8858V37.656H91.2218V50.016ZM109.375 53.52C113.719 53.52 115.591 51.816 115.591 49.512C115.591 47.232 113.935 46.392 111.583 46.392H108.175C107.407 46.392 107.071 46.176 107.071 45.576C107.071 45.264 107.239 45.192 107.527 44.952C108.103 45.144 108.775 45.192 109.471 45.192C112.255 45.192 114.319 44.04 114.319 41.4V41.232C114.319 40.464 114.103 39.936 113.695 39.48H115.591V37.656H111.415C110.815 37.536 110.167 37.464 109.495 37.464C106.567 37.464 104.551 38.76 104.551 41.304V41.52C104.551 42.912 105.175 43.824 106.111 44.424C105.223 45 104.671 45.504 104.671 46.344C104.671 47.208 105.223 47.88 105.967 48.144V48.24C104.671 48.624 103.663 49.392 103.663 50.664C103.663 52.416 105.511 53.52 109.375 53.52ZM109.327 51.648C107.191 51.648 106.399 51.168 106.399 50.256C106.399 49.416 106.927 48.96 107.671 48.72H110.839C112.327 48.72 112.759 49.008 112.759 49.968C112.759 51 111.895 51.648 109.327 51.648ZM109.471 43.416C108.103 43.416 107.263 42.888 107.263 41.448V41.16C107.263 39.864 108.055 39.216 109.471 39.216C110.815 39.216 111.655 39.744 111.655 41.208V41.52C111.655 42.888 110.887 43.416 109.471 43.416ZM124.802 50.016H127.514V39.816H130.226V37.656H127.514V36.408C127.514 34.944 128.234 34.344 129.53 34.344C130.25 34.344 130.778 34.44 131.114 34.512V32.664C130.658 32.472 129.89 32.28 128.786 32.28C126.458 32.28 124.802 33.456 124.802 36.12V37.656H123.026V39.816H124.802V50.016ZM137.655 50.232C141.111 50.232 143.511 47.952 143.511 43.968V43.632C143.511 39.696 141.375 37.44 137.679 37.44C134.199 37.44 131.799 39.744 131.799 43.704V44.088C131.799 47.952 133.887 50.232 137.655 50.232ZM137.703 48.144C135.975 48.144 134.631 47.28 134.631 44.088V43.512C134.631 40.848 135.735 39.528 137.631 39.528C139.311 39.528 140.631 40.392 140.631 43.608V44.208C140.631 46.872 139.551 48.144 137.703 48.144ZM146.066 50.016H148.826V40.824C149.618 40.32 150.722 40.008 151.826 40.008C152.114 40.008 152.522 40.032 152.834 40.08V37.632C152.714 37.584 152.402 37.56 152.066 37.56C150.77 37.56 149.498 38.208 148.826 39.096H148.73V37.656H146.066V50.016ZM164.513 50.232C166.121 50.232 167.105 49.704 167.705 49.008H167.849L168.065 50.016H170.345V41.136C170.345 38.568 168.689 37.464 165.833 37.464C164.225 37.464 162.905 37.68 161.753 38.136V40.032C162.497 39.864 163.553 39.696 164.753 39.696C166.841 39.696 167.585 40.08 167.585 41.76V42.696L164.681 43.032C162.233 43.392 160.721 44.448 160.721 46.728C160.721 49.104 162.281 50.232 164.513 50.232ZM165.353 48.288C164.225 48.288 163.433 47.76 163.433 46.584C163.433 45.336 164.081 44.832 165.305 44.736L167.585 44.496V47.544C167.129 47.976 166.241 48.288 165.353 48.288ZM178.974 53.592C181.638 53.592 182.694 52.056 182.694 49.944V37.656H179.91V49.728C179.91 50.952 179.286 51.48 178.158 51.48C177.75 51.48 177.294 51.408 176.958 51.336V53.136C177.438 53.4 178.038 53.592 178.974 53.592ZM179.91 35.616H182.718V33.096H179.91V35.616ZM191.187 50.232C194.643 50.232 197.043 47.952 197.043 43.968V43.632C197.043 39.696 194.907 37.44 191.211 37.44C187.731 37.44 185.331 39.744 185.331 43.704V44.088C185.331 47.952 187.419 50.232 191.187 50.232ZM191.235 48.144C189.507 48.144 188.163 47.28 188.163 44.088V43.512C188.163 40.848 189.267 39.528 191.163 39.528C192.843 39.528 194.163 40.392 194.163 43.608V44.208C194.163 46.872 193.083 48.144 191.235 48.144ZM204.421 50.28C208.597 50.28 210.829 48.072 210.829 43.704V43.416C210.829 38.856 208.429 37.44 206.125 37.44C204.493 37.44 203.389 37.896 202.477 38.496H202.357V32.472H199.597V49.56C200.749 50.016 202.765 50.28 204.421 50.28ZM204.589 48.168C203.533 48.168 202.837 47.976 202.357 47.808V40.296C202.861 40.056 203.797 39.696 204.829 39.696C206.965 39.696 207.949 40.632 207.949 43.632V44.112C207.949 47.328 206.389 48.168 204.589 48.168Z" fill="black"/>
</svg>
