<svg width="130" height="86" viewBox="0 0 130 86" fill="none" xmlns="http://www.w3.org/2000/svg">
<path d="M38.405 0.511999H35.573V15.944H38.405V8.84H41.453V6.512H38.405V0.511999ZM38.909 21.272V19.04H27.317V14.528H24.533V21.272H38.909ZM32.357 12.704V1.976H29.549V5.384H24.989V2.024H22.229V12.704H32.357ZM29.549 10.568H24.989V7.52H29.549V10.568ZM62.2427 11.048V8.72H59.1467V0.511999H56.3627V21.896H59.1467V11.048H62.2427ZM53.5307 2.696H43.5467V5.024H50.4827C50.0987 9.296 46.9067 13.784 42.2507 15.92L43.9547 18.032C50.5067 14.48 53.3387 9.152 53.5307 2.696ZM75.5923 5.936C75.5923 3.296 73.3363 1.352 69.9763 1.352C66.6643 1.352 64.4323 3.296 64.4323 5.936C64.4323 8.504 66.6643 10.376 69.9763 10.376C73.2403 10.376 75.5923 8.504 75.5923 5.936ZM74.0563 17.096H78.4723V21.896H81.2563V0.511999H78.4723V14.936H74.0563V17.096ZM71.4643 21.272V13.904C73.4563 13.76 75.4483 13.592 77.0083 13.376L76.8643 11.24C75.0403 11.48 72.9523 11.624 69.9043 11.792C67.5523 11.888 65.3443 11.912 62.8963 11.912L63.2803 14.192C64.9123 14.192 66.5203 14.168 68.6323 14.072V21.272H71.4643ZM72.8083 5.912C72.8083 7.184 71.6803 8.096 69.9763 8.096C68.3683 8.096 67.2403 7.184 67.2403 5.912C67.2403 4.64 68.3923 3.656 69.9763 3.656C71.6323 3.656 72.8083 4.64 72.8083 5.912ZM101.446 7.448C101.446 4.16 98.3499 1.76 93.6459 1.76C88.9659 1.76 85.8699 4.16 85.8699 7.448C85.8699 10.712 88.9659 13.064 93.6459 13.064C98.3499 13.064 101.446 10.712 101.446 7.448ZM103.294 19.232V16.976H98.9259V13.424L96.1179 13.544V16.976H91.1019V13.544L88.2939 13.424V16.976H83.9739V19.232H103.294ZM98.5659 7.448C98.5659 9.368 96.5979 10.76 93.6459 10.76C90.6699 10.76 88.7499 9.368 88.7499 7.448C88.7499 5.504 90.6699 4.112 93.6459 4.112C96.6219 4.112 98.5659 5.504 98.5659 7.448ZM104.716 22.256H106.972L108.7 17.408H105.676L104.716 22.256ZM53.2876 53.896V32.512H50.6236V40.888H48.7276V32.896H46.1116V52.912H48.7276V43.12H50.6236V53.896H53.2876ZM44.1676 35.032H35.8876V37.288H41.4556C41.0956 41.536 38.7676 45.28 34.5916 47.776L36.4156 49.72C41.6476 46.288 44.1916 41.416 44.1676 35.032ZM66.4932 42.592V33.28H63.6852V36.016H59.1492V33.328H56.3892V42.592H66.4932ZM63.6852 40.408H59.1492V38.224H63.6852V40.408ZM75.5652 39.208V36.904H72.5652V32.512H69.7092V43.36H72.5652V39.208H75.5652ZM73.1652 53.728V51.472H61.3812V50.128H72.5652V44.464H58.4292V46.696H69.7092V48.064H58.5972V53.728H73.1652ZM89.5148 46.888C86.2988 45.112 84.2348 42.064 84.2348 37.552V37H88.4108V34.696H77.0108V37H81.3308V37.576C81.3308 42.064 79.4588 45.352 75.9068 47.296L77.6348 49.384C80.1308 48.16 82.2908 45.304 82.8188 43.12C83.4428 45.184 85.9868 47.944 87.9548 48.928L89.5148 46.888ZM93.3308 32.512H90.5228V53.896H93.3308V43.072H96.3788V40.744H93.3308V32.512ZM20.2314 83.232V81H11.9514V77.592C15.9114 77.184 18.4314 74.88 18.4314 71.736C18.4314 68.28 15.3354 65.856 10.5834 65.856C5.85541 65.856 2.73541 68.28 2.73541 71.736C2.73541 74.856 5.23141 77.136 9.14341 77.592V81H0.911406V83.232H20.2314ZM15.5994 71.76C15.5994 73.92 13.6074 75.36 10.5834 75.36C7.55941 75.36 5.59141 73.92 5.59141 71.76C5.59141 69.624 7.55941 68.16 10.5834 68.16C13.6314 68.16 15.5994 69.624 15.5994 71.76ZM34.397 74.856C31.901 74.04 29.453 71.376 29.453 68.112V65.736H26.525V68.256C26.525 71.448 24.509 74.232 21.389 75.384L23.045 77.616C25.061 76.944 27.365 74.712 28.013 72.528C28.949 74.52 31.181 76.44 32.813 77.04C33.317 76.32 33.869 75.6 34.397 74.856ZM39.365 80.016V64.512H36.557V69.432H32.885V71.688H36.557V80.016H39.365ZM39.821 85.32V83.088H28.061V78.6H25.277V85.32H39.821ZM60.1307 77.112V64.536H57.3227V77.112H60.1307ZM45.6587 78.144V80.376H57.3227V85.92H60.1547V78.144H45.6587ZM55.4987 73.776C52.9787 72.96 50.5307 70.584 50.5307 67.248V65.544H47.6267V67.392C47.6267 70.632 45.5627 73.152 42.4427 74.28L44.1467 76.512C46.1387 75.816 48.4667 73.824 49.0907 71.64C50.0267 73.608 52.2587 75.336 53.8907 75.936L55.4987 73.776ZM80.8963 85.632V77.016H78.0883V79.176H69.5683V77.04H66.7603V85.632H80.8963ZM78.0883 83.4H69.5683V81.336H78.0883V83.4ZM80.8723 75.912V64.512H78.0883V75.912H80.8723ZM63.9043 70.536C63.9043 73.56 66.3283 75.432 69.5683 75.432C72.8323 75.432 75.2323 73.56 75.2323 70.536C75.2323 67.56 72.8323 65.424 69.5683 65.424C66.3283 65.424 63.9043 67.608 63.9043 70.536ZM66.7363 70.512C66.7363 68.808 67.9603 67.752 69.5683 67.752C71.1763 67.752 72.4243 68.736 72.4243 70.512C72.4243 72.168 71.1283 73.128 69.5683 73.128C67.9843 73.128 66.7363 72.168 66.7363 70.512ZM101.614 64.512H98.8539V85.896H101.614V64.512ZM96.6699 77.328C94.3419 77.88 90.8379 78.144 87.9339 78.144V66.648H85.1499V80.544H87.1179C89.6379 80.544 94.4379 80.256 97.0299 79.584L96.6699 77.328ZM121.444 64.512H118.636V85.896H121.444V74.904H124.516V72.576H121.444V64.512ZM108.34 78.624V68.736H115.324V66.48H105.556V80.928H107.62C111.796 80.928 115.036 80.736 117.1 80.208C116.98 79.488 116.908 78.72 116.788 77.976C114.364 78.528 111.388 78.624 108.34 78.624ZM126.345 83.4H129.273V80.592H126.345V83.4Z" fill="black"/>
</svg>
