<svg width="131" height="86" viewBox="0 0 131 86" fill="none" xmlns="http://www.w3.org/2000/svg">
<path d="M31.0339 0.511999H28.2019V16.016H31.0339V8.84H34.0579V6.512H31.0339V0.511999ZM31.5379 21.272V19.04H19.9699V14.432H17.1619V21.272H31.5379ZM14.6659 7.472C14.6659 10.52 16.8979 12.704 20.3059 12.704C23.7379 12.704 25.9459 10.52 25.9459 7.472C25.9459 4.448 23.7379 2.24 20.3059 2.24C16.8979 2.24 14.6659 4.448 14.6659 7.472ZM17.5219 7.472C17.5219 5.84 18.6019 4.616 20.3059 4.616C22.0339 4.616 23.1139 5.84 23.1139 7.472C23.1139 9.152 22.0339 10.376 20.3059 10.376C18.6019 10.376 17.5219 9.152 17.5219 7.472ZM52.8556 17.672C52.8556 15.008 50.1916 13.4 45.5356 13.4C40.9276 13.4 38.2876 15.008 38.2876 17.672C38.2876 20.24 40.9276 21.872 45.5356 21.872C50.1916 21.872 52.8556 20.24 52.8556 17.672ZM44.6236 8.456H49.9516V13.208H52.7116V0.511999H49.9516V2.768H44.6236V4.832H49.9516V6.368H44.6236V8.456ZM46.9516 11.816L46.5436 9.584C44.3356 10.088 41.8636 10.256 38.8876 10.256V1.664H36.1036V12.608H38.2636C40.8556 12.608 44.7196 12.368 46.9516 11.816ZM49.9756 17.672C49.9756 18.92 48.3676 19.616 45.5356 19.616C42.7996 19.616 41.1436 18.92 41.1436 17.672C41.1436 16.352 42.7996 15.632 45.5356 15.632C48.3676 15.632 49.9756 16.352 49.9756 17.672ZM68.1492 7.832V5.6H55.7412V7.832H68.1492ZM58.7412 4.112H65.3412V1.904H58.7412V4.112ZM72.5652 0.511999H69.7332V21.896H72.5652V11.504H75.5412V9.176H72.5652V0.511999ZM56.7972 13.184C56.7972 15.896 58.8852 17.792 61.9572 17.792C65.0292 17.792 67.1172 15.8 67.1172 13.184C67.1172 10.496 65.0292 8.576 61.9572 8.576C58.8852 8.576 56.7972 10.568 56.7972 13.184ZM59.5332 13.184C59.5332 11.768 60.5652 10.832 61.9572 10.832C63.3492 10.832 64.3812 11.768 64.3812 13.184C64.3812 14.576 63.5172 15.512 61.9572 15.512C60.5412 15.512 59.5332 14.576 59.5332 13.184ZM94.7948 21.896V0.511999H92.1308V21.896H94.7948ZM90.5228 20.912V0.92H87.9068V7.88H85.0268V10.16H87.9068V20.912H90.5228ZM87.4028 14.696C84.8108 13.136 83.2508 9.896 83.2508 5.744V2.576H80.5628V5.768C80.5628 10.328 78.7868 13.544 76.0748 15.296L77.7308 17.216C79.7228 16.016 81.3308 13.808 81.9308 11.576C82.4828 13.688 84.4028 15.824 85.8188 16.688L87.4028 14.696ZM114.84 7.448C114.84 4.16 111.744 1.76 107.04 1.76C102.36 1.76 99.2644 4.16 99.2644 7.448C99.2644 10.712 102.36 13.064 107.04 13.064C111.744 13.064 114.84 10.712 114.84 7.448ZM116.688 19.232V16.976H112.32V13.424L109.512 13.544V16.976H104.496V13.544L101.688 13.424V16.976H97.3684V19.232H116.688ZM111.96 7.448C111.96 9.368 109.992 10.76 107.04 10.76C104.064 10.76 102.144 9.368 102.144 7.448C102.144 5.504 104.064 4.112 107.04 4.112C110.016 4.112 111.96 5.504 111.96 7.448ZM20.5708 43.048V40.72H17.4748V32.512H14.6908V53.896H17.4748V43.048H20.5708ZM11.8588 34.696H1.87478V37.024H8.81078C8.42678 41.296 5.23478 45.784 0.578781 47.92L2.28278 50.032C8.83478 46.48 11.6668 41.152 11.8588 34.696ZM33.8004 43.408C33.7044 42.688 33.5844 41.92 33.4644 41.176C30.8724 41.728 28.0884 41.968 25.1364 41.968V33.976H22.3284V44.32H24.4644C27.0804 44.32 31.0644 44.08 33.8004 43.408ZM38.2404 32.512H35.4084V47.992H38.2404V40.744H41.3124V38.416H38.2404V32.512ZM38.7684 53.272V51.016H27.1764V46.432H24.3924V53.272H38.7684ZM54.542 38.536V36.352H42.134V38.536H54.542ZM53.51 43.072C53.51 40.816 51.35 39.136 48.47 39.136C45.518 39.136 43.382 40.816 43.382 43.072C43.382 45.352 45.542 46.96 48.47 46.96C51.35 46.96 53.51 45.352 53.51 43.072ZM45.302 35.344H51.662V33.208H45.302V35.344ZM59.03 32.512H56.222V48.4H59.03V41.752H62.006V39.424H59.03V32.512ZM59.534 53.392V51.16H47.75V47.752H44.918V53.392H59.534ZM46.166 43.072C46.166 42.064 47.222 41.368 48.47 41.368C49.694 41.368 50.774 42.064 50.774 43.072C50.774 44.032 49.694 44.704 48.47 44.704C47.222 44.704 46.166 44.032 46.166 43.072ZM87.5883 53.896V32.512H84.9243V40.888H83.0283V32.896H80.4123V52.912H83.0283V43.12H84.9243V53.896H87.5883ZM78.4683 35.032H70.1883V37.288H75.7563C75.3963 41.536 73.0683 45.28 68.8923 47.776L70.7163 49.72C75.9483 46.288 78.4923 41.416 78.4683 35.032ZM100.794 42.592V33.28H97.986V36.016H93.45V33.328H90.69V42.592H100.794ZM97.986 40.408H93.45V38.224H97.986V40.408ZM109.866 39.208V36.904H106.866V32.512H104.01V43.36H106.866V39.208H109.866ZM107.466 53.728V51.472H95.682V50.128H106.866V44.464H92.73V46.696H104.01V48.064H92.898V53.728H107.466ZM123.816 46.888C120.6 45.112 118.536 42.064 118.536 37.552V37H122.712V34.696H111.312V37H115.632V37.576C115.632 42.064 113.76 45.352 110.208 47.296L111.936 49.384C114.432 48.16 116.592 45.304 117.12 43.12C117.744 45.184 120.288 47.944 122.256 48.928L123.816 46.888ZM127.632 32.512H124.824V53.896H127.632V43.072H130.68V40.744H127.632V32.512ZM20.2314 83.232V81H11.9514V77.592C15.9114 77.184 18.4314 74.88 18.4314 71.736C18.4314 68.28 15.3354 65.856 10.5834 65.856C5.85541 65.856 2.73541 68.28 2.73541 71.736C2.73541 74.856 5.23141 77.136 9.14341 77.592V81H0.911406V83.232H20.2314ZM15.5994 71.76C15.5994 73.92 13.6074 75.36 10.5834 75.36C7.55941 75.36 5.59141 73.92 5.59141 71.76C5.59141 69.624 7.55941 68.16 10.5834 68.16C13.6314 68.16 15.5994 69.624 15.5994 71.76ZM34.397 74.856C31.901 74.04 29.453 71.376 29.453 68.112V65.736H26.525V68.256C26.525 71.448 24.509 74.232 21.389 75.384L23.045 77.616C25.061 76.944 27.365 74.712 28.013 72.528C28.949 74.52 31.181 76.44 32.813 77.04C33.317 76.32 33.869 75.6 34.397 74.856ZM39.365 80.016V64.512H36.557V69.432H32.885V71.688H36.557V80.016H39.365ZM39.821 85.32V83.088H28.061V78.6H25.277V85.32H39.821ZM60.1307 77.112V64.536H57.3227V77.112H60.1307ZM45.6587 78.144V80.376H57.3227V85.92H60.1547V78.144H45.6587ZM55.4987 73.776C52.9787 72.96 50.5307 70.584 50.5307 67.248V65.544H47.6267V67.392C47.6267 70.632 45.5627 73.152 42.4427 74.28L44.1467 76.512C46.1387 75.816 48.4667 73.824 49.0907 71.64C50.0267 73.608 52.2587 75.336 53.8907 75.936L55.4987 73.776ZM80.8963 85.632V77.016H78.0883V79.176H69.5683V77.04H66.7603V85.632H80.8963ZM78.0883 83.4H69.5683V81.336H78.0883V83.4ZM80.8723 75.912V64.512H78.0883V75.912H80.8723ZM63.9043 70.536C63.9043 73.56 66.3283 75.432 69.5683 75.432C72.8323 75.432 75.2323 73.56 75.2323 70.536C75.2323 67.56 72.8323 65.424 69.5683 65.424C66.3283 65.424 63.9043 67.608 63.9043 70.536ZM66.7363 70.512C66.7363 68.808 67.9603 67.752 69.5683 67.752C71.1763 67.752 72.4243 68.736 72.4243 70.512C72.4243 72.168 71.1283 73.128 69.5683 73.128C67.9843 73.128 66.7363 72.168 66.7363 70.512ZM101.614 64.512H98.8539V85.896H101.614V64.512ZM96.6699 77.328C94.3419 77.88 90.8379 78.144 87.9339 78.144V66.648H85.1499V80.544H87.1179C89.6379 80.544 94.4379 80.256 97.0299 79.584L96.6699 77.328ZM121.444 64.512H118.636V85.896H121.444V74.904H124.516V72.576H121.444V64.512ZM108.34 78.624V68.736H115.324V66.48H105.556V80.928H107.62C111.796 80.928 115.036 80.736 117.1 80.208C116.98 79.488 116.908 78.72 116.788 77.976C114.364 78.528 111.388 78.624 108.34 78.624ZM126.345 83.4H129.273V80.592H126.345V83.4Z" fill="black"/>
</svg>
