<svg width="128" height="128" viewBox="0 0 128 128" fill="none" xmlns="http://www.w3.org/2000/svg">
<rect x="1.5" y="1.5" width="125" height="125" stroke="black" stroke-width="3"/>
<path d="M45.7184 96.12C63.5744 96.12 75.8624 84.504 75.8624 63.192V61.08C75.8624 39.096 63.8624 28.152 46.2944 28.152C28.3424 28.152 16.1504 39.864 16.1504 61.08V63.192C16.1504 84.984 27.9584 96.12 45.7184 96.12ZM46.1024 87C33.5264 87 28.7264 77.976 28.7264 63.096V59.736C28.7264 46.392 34.2944 37.368 45.7184 37.368C58.4864 37.464 63.2864 46.392 63.2864 61.176V64.44C63.2864 77.88 57.6224 87 46.1024 87Z" fill="black"/>
<path d="M91.922 49.288H87.954C88.018 46.984 89.746 44.488 91.922 44.04V40.008C86.674 40.968 83.474 45.384 83.474 51.272V57.416H91.922V49.288Z" fill="black"/>
<path d="M95.626 103.888C103.69 103.888 108.234 100.496 108.234 93.648C108.234 87.952 105.738 85.392 99.274 83.92L96.138 83.216C93.002 82.448 91.722 81.616 91.722 79.312C91.722 76.752 93.77 75.472 97.61 75.472C101.322 75.472 104.522 76.432 106.442 77.264V71.696C104.266 70.736 101.45 69.904 96.97 69.904C88.65 69.904 84.746 73.808 84.746 79.888C84.746 85.776 88.074 88.336 93.13 89.36L96.202 90.064C99.786 90.832 101.066 91.984 101.066 94.352C101.066 96.784 99.146 98.32 94.538 98.32C89.93 98.32 87.498 97.36 84.746 96.272V101.648C87.498 103.12 91.338 103.888 95.626 103.888Z" fill="black"/>
</svg>
