<svg xmlns="http://www.w3.org/2000/svg" width="258" height="61" viewBox="0 0 258 61" fill="none">
    <path d="M127.043 58.7209H113.024C109.098 58.7135 105.215 57.9059 101.612 56.3474C98.0092 54.7888 94.7619 52.512 92.0685 49.6561C89.365 46.7973 87.2818 43.4103 85.9498 39.7079C84.6178 36.0055 84.0656 32.0677 84.3281 28.1417C85.2471 13.3003 97.497 1.25583 111.636 1.25583C128.898 1.25583 139.458 17.9354 139.458 27.0229C139.516 29.2508 138.856 31.4382 137.575 33.262C136.733 34.4175 135.627 35.3543 134.349 35.994C133.071 36.6336 131.657 36.9574 130.228 36.9381H99.9745C100.594 38.0878 101.361 39.1511 102.258 40.1005C103.637 41.5796 105.308 42.7574 107.165 43.56C109.021 44.3626 111.024 44.7725 113.046 44.7642H127.066C128.882 44.8161 130.606 45.5741 131.873 46.8771C133.139 48.1802 133.847 49.9255 133.847 51.7425C133.847 53.5595 133.139 55.3049 131.873 56.6079C130.606 57.9109 128.882 58.6689 127.066 58.7209H127.043ZM99.9287 22.9872H123.903C121.751 19.4538 117.493 15.2068 111.631 15.2068C106.79 15.2068 102.281 18.4263 99.9287 22.9872Z" fill="#0038FF"/>
    <path d="M153.524 60.9927C151.674 60.9927 149.899 60.2578 148.591 58.9497C147.283 57.6415 146.548 55.8673 146.548 54.0172V8.23132C146.548 6.3813 147.283 4.60706 148.591 3.2989C149.899 1.99075 151.674 1.25583 153.524 1.25583C154.44 1.25583 155.347 1.43626 156.193 1.78681C157.039 2.13736 157.808 2.65117 158.456 3.2989C159.104 3.94664 159.618 4.71561 159.968 5.56191C160.319 6.40822 160.499 7.31529 160.499 8.23132V54.0172C160.499 54.9333 160.319 55.8403 159.968 56.6867C159.618 57.533 159.104 58.3019 158.456 58.9497C157.808 59.5974 157.039 60.1112 156.193 60.4618C155.347 60.8123 154.44 60.9927 153.524 60.9927Z" fill="#0038FF"/>
    <path d="M205.943 60.9927C200.256 60.9927 194.696 59.3063 189.968 56.1467C185.239 52.987 181.554 48.4962 179.378 43.242C177.202 37.9879 176.633 32.2064 177.743 26.6288C178.853 21.0512 181.592 15.928 185.613 11.9071C189.635 7.88626 194.759 5.1483 200.337 4.03952C205.915 2.93074 211.696 3.50095 216.95 5.67804C222.203 7.85512 226.693 11.5413 229.852 16.2704C233.011 20.9994 234.696 26.559 234.695 32.2459C234.684 39.8678 231.652 47.1744 226.262 52.5633C220.872 57.9523 213.564 60.9837 205.943 60.9927ZM205.943 17.4387C203.015 17.4387 200.154 18.3067 197.72 19.9328C195.286 21.559 193.389 23.8703 192.268 26.5746C191.148 29.2789 190.854 32.2547 191.425 35.1258C191.996 37.9968 193.405 40.6342 195.474 42.7045C197.544 44.7747 200.181 46.1849 203.051 46.7566C205.922 47.3284 208.898 47.0361 211.603 45.9167C214.308 44.7973 216.62 42.901 218.247 40.4677C219.874 38.0343 220.743 35.1732 220.744 32.2459C220.735 28.3226 219.173 24.5624 216.399 21.7877C213.625 19.0129 209.866 17.4493 205.943 17.4387Z" fill="#0038FF"/>
    <path d="M146.548 29.7628C146.548 29.9055 146.548 30.0425 146.548 30.1852V29.7628ZM172.435 4.76065C171.658 4.76147 170.886 4.89267 170.152 5.14881C166.705 6.3373 163.452 8.02804 160.499 10.1664V31.3611C161.732 28.7068 165.836 21.4002 174.713 18.3349C176.46 17.7295 177.896 16.4554 178.705 14.7923C179.514 13.1291 179.631 11.2129 179.028 9.46425C178.555 8.09211 177.665 6.90171 176.483 6.05868C175.302 5.21566 173.887 4.76194 172.435 4.76065Z" fill="#7FC8FF"/>
    <path d="M160.499 10.1664C154.429 14.6195 149.732 20.6874 146.942 27.6794C146.703 28.3591 146.571 29.0714 146.548 29.7914V30.2138C146.589 31.6235 147.055 32.9878 147.885 34.1278C148.716 35.2677 149.871 36.13 151.2 36.6014C151.949 36.8639 152.736 36.999 153.529 37.001C154.976 37.0048 156.388 36.557 157.568 35.7199C158.748 34.8828 159.637 33.6983 160.111 32.3316C160.111 32.2574 160.271 31.9092 160.522 31.3612V10.1664" fill="#0065FF"/>
    <path d="M6.97547 58.7208C5.12592 58.7193 3.35258 57.9839 2.04475 56.6761C0.73692 55.3683 0.00151169 53.5949 0 51.7453V24.6368C0 11.0512 10.3662 0 23.107 0C35.8478 0 46.2083 11.0512 46.2083 24.6368C46.2083 26.4869 45.4734 28.2611 44.1653 29.5693C42.8571 30.8774 41.0829 31.6123 39.2328 31.6123C37.3828 31.6123 35.6086 30.8774 34.3004 29.5693C32.9923 28.2611 32.2574 26.4869 32.2574 24.6368C32.2459 18.7459 28.1531 13.9795 23.1127 13.9795C18.0723 13.9795 13.9795 18.7745 13.9795 24.6654V51.7453C13.9788 52.6636 13.7969 53.5726 13.4443 54.4205C13.0917 55.2683 12.5753 56.0382 11.9247 56.6862C11.2741 57.3342 10.502 57.8474 9.65275 58.1965C8.80349 58.5457 7.8937 58.7238 6.97547 58.7208Z" fill="#0038FF"/>
    <path d="M71.4844 58.7208C69.6349 58.7193 67.8615 57.9839 66.5537 56.6761C65.2458 55.3683 64.5105 53.5949 64.5089 51.7453V24.6368C64.5089 18.7459 60.4047 13.951 55.3757 13.951C50.3468 13.951 46.2425 18.7459 46.2425 24.6368V51.7453C46.2425 53.5954 45.5076 55.3696 44.1994 56.6778C42.8912 57.9859 41.1171 58.7208 39.267 58.7208C37.417 58.7208 35.6428 57.9859 34.3346 56.6778C33.0265 55.3696 32.2915 53.5954 32.2915 51.7453V24.6368C32.2915 11.0512 42.652 0 55.3929 0C68.1337 0 78.4827 11.0512 78.4827 24.6368V51.7453C78.482 52.6631 78.3003 53.5717 77.9481 54.4191C77.5958 55.2666 77.0799 56.0363 76.4299 56.6842C75.7799 57.3321 75.0086 57.8454 74.16 58.1949C73.3113 58.5444 72.4022 58.7231 71.4844 58.7208Z" fill="#0038FF"/>
    <path d="M256.054 15.1677C257.129 10.6144 254.309 6.05193 249.755 4.97724C245.202 3.90256 240.64 6.72261 239.565 11.2759C238.49 15.8293 241.31 20.3916 245.864 21.4663C250.417 22.541 254.979 19.721 256.054 15.1677Z" fill="#0038FF"/>
</svg>